%FSLAX45Y45*%
G04 Gerber Fmt 4.5, Leading zero omitted, Abs format (unit mm)*
G04 Created by KiCad (PCBNEW (6.0.0)) date 2022-02-01 21:05:56*
%MOMM*%
%LPD*%
G01*
G04 APERTURE LIST*
%TA.AperFunction,Profile*%
%ADD10C,0.100000*%
%TD*%
%ADD11C,0.200000*%
%ADD12C,0.270000*%
G04 APERTURE END LIST*
D10*
X6750000Y-21000000D02*
X35250000Y-21000000D01*
X6750000Y-9000000D02*
G75*
G03*
X6000000Y-9750000I0J-750000D01*
G01*
X6000000Y-9750000D02*
X6000000Y-20250000D01*
X35250000Y-21000000D02*
G75*
G03*
X36000000Y-20250000I0J750000D01*
G01*
X36000000Y-20250000D02*
X36000000Y-9750000D01*
X36000000Y-9750000D02*
G75*
G03*
X35250000Y-9000000I-750000J0D01*
G01*
X35250000Y-9000000D02*
X6750000Y-9000000D01*
X6000000Y-20250000D02*
G75*
G03*
X6750000Y-21000000I750000J0D01*
G01*
D11*
D12*
X6805000Y-11445000D02*
X7075000Y-11715000D01*
X7075000Y-11445000D02*
X6805000Y-11715000D01*
X9115000Y-15690000D02*
X9385000Y-15960000D01*
X9385000Y-15690000D02*
X9115000Y-15960000D01*
D11*
X6252619Y-21315476D02*
X6252619Y-21115476D01*
X6300238Y-21115476D01*
X6328809Y-21125000D01*
X6347857Y-21144048D01*
X6357381Y-21163095D01*
X6366905Y-21201190D01*
X6366905Y-21229762D01*
X6357381Y-21267857D01*
X6347857Y-21286905D01*
X6328809Y-21305952D01*
X6300238Y-21315476D01*
X6252619Y-21315476D01*
X6452619Y-21315476D02*
X6452619Y-21182143D01*
X6452619Y-21220238D02*
X6462143Y-21201190D01*
X6471667Y-21191667D01*
X6490714Y-21182143D01*
X6509762Y-21182143D01*
X6576428Y-21315476D02*
X6576428Y-21182143D01*
X6576428Y-21115476D02*
X6566905Y-21125000D01*
X6576428Y-21134524D01*
X6585952Y-21125000D01*
X6576428Y-21115476D01*
X6576428Y-21134524D01*
X6700238Y-21315476D02*
X6681190Y-21305952D01*
X6671667Y-21286905D01*
X6671667Y-21115476D01*
X6805000Y-21315476D02*
X6785952Y-21305952D01*
X6776428Y-21286905D01*
X6776428Y-21115476D01*
X7033571Y-21315476D02*
X7033571Y-21115476D01*
X7100238Y-21258333D01*
X7166905Y-21115476D01*
X7166905Y-21315476D01*
X7347857Y-21315476D02*
X7347857Y-21210714D01*
X7338333Y-21191667D01*
X7319286Y-21182143D01*
X7281190Y-21182143D01*
X7262143Y-21191667D01*
X7347857Y-21305952D02*
X7328809Y-21315476D01*
X7281190Y-21315476D01*
X7262143Y-21305952D01*
X7252619Y-21286905D01*
X7252619Y-21267857D01*
X7262143Y-21248810D01*
X7281190Y-21239286D01*
X7328809Y-21239286D01*
X7347857Y-21229762D01*
X7443095Y-21182143D02*
X7443095Y-21382143D01*
X7443095Y-21191667D02*
X7462143Y-21182143D01*
X7500238Y-21182143D01*
X7519286Y-21191667D01*
X7528809Y-21201190D01*
X7538333Y-21220238D01*
X7538333Y-21277381D01*
X7528809Y-21296429D01*
X7519286Y-21305952D01*
X7500238Y-21315476D01*
X7462143Y-21315476D01*
X7443095Y-21305952D01*
X7624048Y-21296429D02*
X7633571Y-21305952D01*
X7624048Y-21315476D01*
X7614524Y-21305952D01*
X7624048Y-21296429D01*
X7624048Y-21315476D01*
X7624048Y-21191667D02*
X7633571Y-21201190D01*
X7624048Y-21210714D01*
X7614524Y-21201190D01*
X7624048Y-21191667D01*
X7624048Y-21210714D01*
X5795000Y-21545000D02*
X5995000Y-21745000D01*
X5995000Y-21545000D02*
X5795000Y-21745000D01*
X6243095Y-21554524D02*
X6252619Y-21545000D01*
X6271667Y-21535476D01*
X6319286Y-21535476D01*
X6338333Y-21545000D01*
X6347857Y-21554524D01*
X6357381Y-21573571D01*
X6357381Y-21592619D01*
X6347857Y-21621190D01*
X6233571Y-21735476D01*
X6357381Y-21735476D01*
X6443095Y-21716429D02*
X6452619Y-21725952D01*
X6443095Y-21735476D01*
X6433571Y-21725952D01*
X6443095Y-21716429D01*
X6443095Y-21735476D01*
X6519286Y-21535476D02*
X6652619Y-21535476D01*
X6566905Y-21735476D01*
X6766905Y-21535476D02*
X6785952Y-21535476D01*
X6805000Y-21545000D01*
X6814524Y-21554524D01*
X6824048Y-21573571D01*
X6833571Y-21611667D01*
X6833571Y-21659286D01*
X6824048Y-21697381D01*
X6814524Y-21716429D01*
X6805000Y-21725952D01*
X6785952Y-21735476D01*
X6766905Y-21735476D01*
X6747857Y-21725952D01*
X6738333Y-21716429D01*
X6728809Y-21697381D01*
X6719286Y-21659286D01*
X6719286Y-21611667D01*
X6728809Y-21573571D01*
X6738333Y-21554524D01*
X6747857Y-21545000D01*
X6766905Y-21535476D01*
X6957381Y-21535476D02*
X6976428Y-21535476D01*
X6995476Y-21545000D01*
X7005000Y-21554524D01*
X7014524Y-21573571D01*
X7024048Y-21611667D01*
X7024048Y-21659286D01*
X7014524Y-21697381D01*
X7005000Y-21716429D01*
X6995476Y-21725952D01*
X6976428Y-21735476D01*
X6957381Y-21735476D01*
X6938333Y-21725952D01*
X6928809Y-21716429D01*
X6919286Y-21697381D01*
X6909762Y-21659286D01*
X6909762Y-21611667D01*
X6919286Y-21573571D01*
X6928809Y-21554524D01*
X6938333Y-21545000D01*
X6957381Y-21535476D01*
X7109762Y-21735476D02*
X7109762Y-21602143D01*
X7109762Y-21621190D02*
X7119286Y-21611667D01*
X7138333Y-21602143D01*
X7166905Y-21602143D01*
X7185952Y-21611667D01*
X7195476Y-21630714D01*
X7195476Y-21735476D01*
X7195476Y-21630714D02*
X7205000Y-21611667D01*
X7224048Y-21602143D01*
X7252619Y-21602143D01*
X7271667Y-21611667D01*
X7281190Y-21630714D01*
X7281190Y-21735476D01*
X7376428Y-21735476D02*
X7376428Y-21602143D01*
X7376428Y-21621190D02*
X7385952Y-21611667D01*
X7405000Y-21602143D01*
X7433571Y-21602143D01*
X7452619Y-21611667D01*
X7462143Y-21630714D01*
X7462143Y-21735476D01*
X7462143Y-21630714D02*
X7471667Y-21611667D01*
X7490714Y-21602143D01*
X7519286Y-21602143D01*
X7538333Y-21611667D01*
X7547857Y-21630714D01*
X7547857Y-21735476D01*
X7938333Y-21525952D02*
X7766905Y-21783095D01*
X8195476Y-21535476D02*
X8214524Y-21535476D01*
X8233571Y-21545000D01*
X8243095Y-21554524D01*
X8252619Y-21573571D01*
X8262143Y-21611667D01*
X8262143Y-21659286D01*
X8252619Y-21697381D01*
X8243095Y-21716429D01*
X8233571Y-21725952D01*
X8214524Y-21735476D01*
X8195476Y-21735476D01*
X8176428Y-21725952D01*
X8166905Y-21716429D01*
X8157381Y-21697381D01*
X8147857Y-21659286D01*
X8147857Y-21611667D01*
X8157381Y-21573571D01*
X8166905Y-21554524D01*
X8176428Y-21545000D01*
X8195476Y-21535476D01*
X8347857Y-21716429D02*
X8357381Y-21725952D01*
X8347857Y-21735476D01*
X8338333Y-21725952D01*
X8347857Y-21716429D01*
X8347857Y-21735476D01*
X8547857Y-21735476D02*
X8433571Y-21735476D01*
X8490714Y-21735476D02*
X8490714Y-21535476D01*
X8471667Y-21564048D01*
X8452619Y-21583095D01*
X8433571Y-21592619D01*
X8671667Y-21535476D02*
X8690714Y-21535476D01*
X8709762Y-21545000D01*
X8719286Y-21554524D01*
X8728810Y-21573571D01*
X8738333Y-21611667D01*
X8738333Y-21659286D01*
X8728810Y-21697381D01*
X8719286Y-21716429D01*
X8709762Y-21725952D01*
X8690714Y-21735476D01*
X8671667Y-21735476D01*
X8652619Y-21725952D01*
X8643095Y-21716429D01*
X8633571Y-21697381D01*
X8624048Y-21659286D01*
X8624048Y-21611667D01*
X8633571Y-21573571D01*
X8643095Y-21554524D01*
X8652619Y-21545000D01*
X8671667Y-21535476D01*
X8909762Y-21535476D02*
X8871667Y-21535476D01*
X8852619Y-21545000D01*
X8843095Y-21554524D01*
X8824048Y-21583095D01*
X8814524Y-21621190D01*
X8814524Y-21697381D01*
X8824048Y-21716429D01*
X8833571Y-21725952D01*
X8852619Y-21735476D01*
X8890714Y-21735476D01*
X8909762Y-21725952D01*
X8919286Y-21716429D01*
X8928810Y-21697381D01*
X8928810Y-21649762D01*
X8919286Y-21630714D01*
X8909762Y-21621190D01*
X8890714Y-21611667D01*
X8852619Y-21611667D01*
X8833571Y-21621190D01*
X8824048Y-21630714D01*
X8814524Y-21649762D01*
X8995476Y-21535476D02*
X9119286Y-21535476D01*
X9052619Y-21611667D01*
X9081190Y-21611667D01*
X9100238Y-21621190D01*
X9109762Y-21630714D01*
X9119286Y-21649762D01*
X9119286Y-21697381D01*
X9109762Y-21716429D01*
X9100238Y-21725952D01*
X9081190Y-21735476D01*
X9024048Y-21735476D01*
X9005000Y-21725952D01*
X8995476Y-21716429D01*
X9195476Y-21535476D02*
X9195476Y-21573571D01*
X9271667Y-21535476D02*
X9271667Y-21573571D01*
X9566905Y-21811667D02*
X9557381Y-21802143D01*
X9538333Y-21773571D01*
X9528810Y-21754524D01*
X9519286Y-21725952D01*
X9509762Y-21678333D01*
X9509762Y-21640238D01*
X9519286Y-21592619D01*
X9528810Y-21564048D01*
X9538333Y-21545000D01*
X9557381Y-21516429D01*
X9566905Y-21506905D01*
X9633571Y-21554524D02*
X9643095Y-21545000D01*
X9662143Y-21535476D01*
X9709762Y-21535476D01*
X9728810Y-21545000D01*
X9738333Y-21554524D01*
X9747857Y-21573571D01*
X9747857Y-21592619D01*
X9738333Y-21621190D01*
X9624048Y-21735476D01*
X9747857Y-21735476D01*
X9985952Y-21735476D02*
X9985952Y-21535476D01*
X10071667Y-21735476D02*
X10071667Y-21630714D01*
X10062143Y-21611667D01*
X10043095Y-21602143D01*
X10014524Y-21602143D01*
X9995476Y-21611667D01*
X9985952Y-21621190D01*
X10195476Y-21735476D02*
X10176429Y-21725952D01*
X10166905Y-21716429D01*
X10157381Y-21697381D01*
X10157381Y-21640238D01*
X10166905Y-21621190D01*
X10176429Y-21611667D01*
X10195476Y-21602143D01*
X10224048Y-21602143D01*
X10243095Y-21611667D01*
X10252619Y-21621190D01*
X10262143Y-21640238D01*
X10262143Y-21697381D01*
X10252619Y-21716429D01*
X10243095Y-21725952D01*
X10224048Y-21735476D01*
X10195476Y-21735476D01*
X10376429Y-21735476D02*
X10357381Y-21725952D01*
X10347857Y-21706905D01*
X10347857Y-21535476D01*
X10528810Y-21725952D02*
X10509762Y-21735476D01*
X10471667Y-21735476D01*
X10452619Y-21725952D01*
X10443095Y-21706905D01*
X10443095Y-21630714D01*
X10452619Y-21611667D01*
X10471667Y-21602143D01*
X10509762Y-21602143D01*
X10528810Y-21611667D01*
X10538333Y-21630714D01*
X10538333Y-21649762D01*
X10443095Y-21668810D01*
X10614524Y-21725952D02*
X10633571Y-21735476D01*
X10671667Y-21735476D01*
X10690714Y-21725952D01*
X10700238Y-21706905D01*
X10700238Y-21697381D01*
X10690714Y-21678333D01*
X10671667Y-21668810D01*
X10643095Y-21668810D01*
X10624048Y-21659286D01*
X10614524Y-21640238D01*
X10614524Y-21630714D01*
X10624048Y-21611667D01*
X10643095Y-21602143D01*
X10671667Y-21602143D01*
X10690714Y-21611667D01*
X10766905Y-21811667D02*
X10776429Y-21802143D01*
X10795476Y-21773571D01*
X10805000Y-21754524D01*
X10814524Y-21725952D01*
X10824048Y-21678333D01*
X10824048Y-21640238D01*
X10814524Y-21592619D01*
X10805000Y-21564048D01*
X10795476Y-21545000D01*
X10776429Y-21516429D01*
X10766905Y-21506905D01*
X11128810Y-21811667D02*
X11119286Y-21802143D01*
X11100238Y-21773571D01*
X11090714Y-21754524D01*
X11081190Y-21725952D01*
X11071667Y-21678333D01*
X11071667Y-21640238D01*
X11081190Y-21592619D01*
X11090714Y-21564048D01*
X11100238Y-21545000D01*
X11119286Y-21516429D01*
X11128810Y-21506905D01*
X11205000Y-21602143D02*
X11205000Y-21735476D01*
X11205000Y-21621190D02*
X11214524Y-21611667D01*
X11233571Y-21602143D01*
X11262143Y-21602143D01*
X11281190Y-21611667D01*
X11290714Y-21630714D01*
X11290714Y-21735476D01*
X11414524Y-21735476D02*
X11395476Y-21725952D01*
X11385952Y-21716429D01*
X11376428Y-21697381D01*
X11376428Y-21640238D01*
X11385952Y-21621190D01*
X11395476Y-21611667D01*
X11414524Y-21602143D01*
X11443095Y-21602143D01*
X11462143Y-21611667D01*
X11471667Y-21621190D01*
X11481190Y-21640238D01*
X11481190Y-21697381D01*
X11471667Y-21716429D01*
X11462143Y-21725952D01*
X11443095Y-21735476D01*
X11414524Y-21735476D01*
X11538333Y-21602143D02*
X11614524Y-21602143D01*
X11566905Y-21535476D02*
X11566905Y-21706905D01*
X11576428Y-21725952D01*
X11595476Y-21735476D01*
X11614524Y-21735476D01*
X11833571Y-21602143D02*
X11833571Y-21802143D01*
X11833571Y-21611667D02*
X11852619Y-21602143D01*
X11890714Y-21602143D01*
X11909762Y-21611667D01*
X11919286Y-21621190D01*
X11928809Y-21640238D01*
X11928809Y-21697381D01*
X11919286Y-21716429D01*
X11909762Y-21725952D01*
X11890714Y-21735476D01*
X11852619Y-21735476D01*
X11833571Y-21725952D01*
X12043095Y-21735476D02*
X12024048Y-21725952D01*
X12014524Y-21706905D01*
X12014524Y-21535476D01*
X12205000Y-21735476D02*
X12205000Y-21630714D01*
X12195476Y-21611667D01*
X12176428Y-21602143D01*
X12138333Y-21602143D01*
X12119286Y-21611667D01*
X12205000Y-21725952D02*
X12185952Y-21735476D01*
X12138333Y-21735476D01*
X12119286Y-21725952D01*
X12109762Y-21706905D01*
X12109762Y-21687857D01*
X12119286Y-21668810D01*
X12138333Y-21659286D01*
X12185952Y-21659286D01*
X12205000Y-21649762D01*
X12271667Y-21602143D02*
X12347857Y-21602143D01*
X12300238Y-21535476D02*
X12300238Y-21706905D01*
X12309762Y-21725952D01*
X12328809Y-21735476D01*
X12347857Y-21735476D01*
X12490714Y-21725952D02*
X12471667Y-21735476D01*
X12433571Y-21735476D01*
X12414524Y-21725952D01*
X12405000Y-21706905D01*
X12405000Y-21630714D01*
X12414524Y-21611667D01*
X12433571Y-21602143D01*
X12471667Y-21602143D01*
X12490714Y-21611667D01*
X12500238Y-21630714D01*
X12500238Y-21649762D01*
X12405000Y-21668810D01*
X12671667Y-21735476D02*
X12671667Y-21535476D01*
X12671667Y-21725952D02*
X12652619Y-21735476D01*
X12614524Y-21735476D01*
X12595476Y-21725952D01*
X12585952Y-21716429D01*
X12576428Y-21697381D01*
X12576428Y-21640238D01*
X12585952Y-21621190D01*
X12595476Y-21611667D01*
X12614524Y-21602143D01*
X12652619Y-21602143D01*
X12671667Y-21611667D01*
X12747857Y-21811667D02*
X12757381Y-21802143D01*
X12776428Y-21773571D01*
X12785952Y-21754524D01*
X12795476Y-21725952D01*
X12805000Y-21678333D01*
X12805000Y-21640238D01*
X12795476Y-21592619D01*
X12785952Y-21564048D01*
X12776428Y-21545000D01*
X12757381Y-21516429D01*
X12747857Y-21506905D01*
M02*
