M48
; DRILL file {KiCad (6.0.0)} date Tue Feb  1 21:05:55 2022
; FORMAT={-:-/ absolute / metric / decimal}
; #@! TF.CreationDate,2022-02-01T21:05:55+01:00
; #@! TF.GenerationSoftware,Kicad,Pcbnew,(6.0.0)
; #@! TF.FileFunction,Plated,1,2,PTH
FMAT,2
METRIC
; #@! TA.AperFunction,Plated,PTH,ViaDrill
T1C0.200
; #@! TA.AperFunction,Plated,PTH,ViaDrill
T2C0.300
; #@! TA.AperFunction,Plated,PTH,ViaDrill
T3C0.400
; #@! TA.AperFunction,Plated,PTH,ViaDrill
T4C0.500
; #@! TA.AperFunction,Plated,PTH,ComponentDrill
T5C0.500
; #@! TA.AperFunction,Plated,PTH,ComponentDrill
T6C0.650
; #@! TA.AperFunction,Plated,PTH,ComponentDrill
T7C0.700
; #@! TA.AperFunction,Plated,PTH,ComponentDrill
T8C0.750
; #@! TA.AperFunction,Plated,PTH,ComponentDrill
T9C0.800
; #@! TA.AperFunction,Plated,PTH,ComponentDrill
T10C0.920
; #@! TA.AperFunction,Plated,PTH,ViaDrill
T11C1.000
; #@! TA.AperFunction,Plated,PTH,ComponentDrill
T12C1.000
; #@! TA.AperFunction,Plated,PTH,ComponentDrill
T13C1.100
; #@! TA.AperFunction,Plated,PTH,ComponentDrill
T14C1.200
; #@! TA.AperFunction,Plated,PTH,ComponentDrill
T15C1.300
; #@! TA.AperFunction,Plated,PTH,ComponentDrill
T16C1.400
; #@! TA.AperFunction,Plated,PTH,ComponentDrill
T17C2.260
; #@! TA.AperFunction,Plated,PTH,ViaDrill
T18C2.500
; #@! TA.AperFunction,Plated,PTH,ComponentDrill
T19C3.000
%
G90
G05
T1
X239.612Y-201.475
X262.9Y-174.0
T2
X62.0Y-95.0
X62.0Y-98.0
X62.0Y-101.0
X62.0Y-104.0
X62.0Y-107.0
X62.0Y-110.0
X62.0Y-113.0
X62.0Y-116.0
X62.0Y-119.0
X62.0Y-122.0
X62.0Y-125.0
X62.0Y-128.0
X62.0Y-131.0
X62.0Y-134.0
X62.0Y-137.0
X62.0Y-140.0
X62.0Y-143.0
X62.0Y-146.0
X62.0Y-153.0
X62.0Y-157.0
X62.0Y-161.0
X62.0Y-165.0
X62.0Y-169.0
X62.0Y-176.0
X62.0Y-180.0
X62.0Y-183.0
X62.0Y-188.0
X62.0Y-193.0
X62.0Y-196.0
X62.0Y-199.0
X62.0Y-202.0
X62.0Y-205.0
X63.0Y-207.0
X64.0Y-93.0
X65.0Y-208.0
X67.0Y-91.0
X67.0Y-209.0
X69.0Y-209.0
X70.0Y-91.0
X71.0Y-209.0
X73.0Y-91.0
X73.75Y-190.75
X74.0Y-209.0
X76.0Y-91.0
X76.0Y-209.0
X79.0Y-91.0
X81.0Y-209.0
X82.0Y-91.0
X84.0Y-209.0
X85.0Y-91.0
X86.0Y-209.0
X88.0Y-91.0
X88.0Y-209.0
X88.5Y-106.0
X88.5Y-109.5
X90.0Y-209.0
X91.0Y-91.0
X91.5Y-106.0
X91.5Y-109.5
X92.0Y-209.0
X94.0Y-209.0
X94.5Y-100.5
X94.5Y-106.0
X94.5Y-109.5
X96.0Y-209.0
X97.5Y-96.0
X97.5Y-98.0
X97.5Y-100.5
X97.5Y-103.0
X97.5Y-106.0
X97.5Y-109.5
X98.0Y-209.0
X100.0Y-173.5
X100.0Y-209.0
X100.5Y-96.0
X100.5Y-98.0
X100.5Y-100.5
X100.5Y-103.0
X100.5Y-106.0
X100.5Y-109.5
X102.0Y-209.0
X102.5Y-195.75
X103.5Y-100.5
X103.5Y-103.0
X103.5Y-106.0
X103.5Y-109.5
X104.0Y-209.0
X106.0Y-209.0
X106.25Y-173.5
X106.5Y-96.0
X106.5Y-98.0
X106.5Y-100.5
X106.5Y-103.0
X106.5Y-106.0
X108.0Y-209.0
X109.0Y-96.0
X109.0Y-98.0
X109.0Y-100.5
X109.0Y-103.0
X110.0Y-209.0
X110.5Y-195.75
X111.5Y-96.0
X111.5Y-98.0
X112.0Y-209.0
X113.25Y-173.5
X113.3Y-166.3
X114.0Y-98.0
X114.0Y-209.0
X116.0Y-209.0
X118.0Y-209.0
X118.4Y-166.2
X118.5Y-195.75
X119.5Y-171.5
X120.0Y-209.0
X122.0Y-209.0
X123.0Y-151.0
X124.0Y-209.0
X125.0Y-151.0
X125.25Y-195.75
X126.0Y-209.0
X127.0Y-151.0
X128.0Y-209.0
X129.0Y-151.0
X130.0Y-209.0
X131.0Y-151.0
X131.0Y-160.5
X131.0Y-162.25
X131.0Y-167.0
X131.0Y-169.0
X131.0Y-171.0
X131.25Y-195.75
X132.0Y-91.0
X132.0Y-168.0
X132.0Y-170.0
X132.0Y-209.0
X132.8Y-120.2
X133.0Y-96.0
X133.0Y-102.0
X133.0Y-151.0
X133.0Y-167.0
X133.0Y-169.0
X133.0Y-171.0
X133.4Y-121.2
X134.0Y-91.0
X134.0Y-120.2
X134.0Y-168.0
X134.0Y-170.0
X134.0Y-209.0
X134.6Y-121.2
X135.0Y-96.0
X135.0Y-101.0
X135.0Y-103.0
X135.0Y-105.0
X135.0Y-107.0
X135.0Y-109.0
X135.0Y-151.0
X135.0Y-167.0
X135.0Y-169.0
X135.0Y-171.0
X135.2Y-120.2
X135.8Y-121.2
X136.0Y-91.0
X136.0Y-166.0
X136.0Y-168.0
X136.0Y-170.0
X136.0Y-209.0
X136.4Y-120.2
X137.0Y-96.0
X137.0Y-121.2
X137.0Y-151.0
X137.0Y-167.0
X137.0Y-169.0
X137.0Y-171.0
X137.5Y-195.75
X137.6Y-120.2
X138.0Y-91.0
X138.0Y-166.0
X138.0Y-168.0
X138.0Y-170.0
X138.0Y-178.0
X138.0Y-209.0
X139.0Y-107.0
X139.0Y-109.0
X139.0Y-167.0
X139.0Y-169.0
X139.0Y-171.0
X139.5Y-112.0
X140.0Y-91.0
X140.0Y-93.0
X140.0Y-168.0
X140.0Y-170.0
X140.0Y-178.0
X140.0Y-209.0
X140.4Y-120.2
X140.4Y-121.2
X141.0Y-94.0
X141.0Y-96.0
X141.0Y-98.0
X141.0Y-100.0
X141.0Y-109.0
X141.0Y-169.0
X141.0Y-171.0
X141.8Y-120.2
X141.8Y-121.2
X142.0Y-91.0
X142.0Y-170.0
X142.0Y-178.0
X142.0Y-209.0
X142.5Y-189.0
X143.0Y-169.0
X143.0Y-171.0
X144.0Y-91.0
X144.0Y-93.0
X144.0Y-95.0
X144.0Y-97.0
X144.0Y-99.0
X144.0Y-101.0
X144.0Y-111.0
X144.0Y-170.0
X144.0Y-178.0
X144.25Y-195.75
X145.0Y-151.0
X145.25Y-189.0
X146.0Y-178.0
X147.0Y-151.0
X148.0Y-91.0
X148.0Y-93.0
X148.0Y-95.0
X148.0Y-97.0
X148.0Y-99.0
X148.0Y-101.0
X148.0Y-103.0
X148.0Y-178.0
X148.1Y-185.7
X148.25Y-189.0
X149.0Y-151.0
X149.0Y-177.0
X150.0Y-91.0
X150.0Y-174.0
X150.0Y-176.0
X150.0Y-178.0
X150.0Y-195.75
X150.0Y-209.0
X150.75Y-189.0
X151.0Y-151.0
X151.0Y-173.0
X151.0Y-175.0
X151.0Y-177.0
X152.0Y-91.0
X152.0Y-172.0
X152.0Y-174.0
X152.0Y-176.0
X152.0Y-178.0
X152.0Y-209.0
X153.0Y-151.0
X153.0Y-173.0
X153.0Y-175.0
X153.0Y-177.0
X153.25Y-189.0
X153.85Y-179.25
X154.0Y-91.0
X154.0Y-209.0
X154.75Y-190.5
X155.0Y-151.0
X155.25Y-107.0
X155.25Y-110.5
X155.5Y-196.0
X156.0Y-91.0
X156.0Y-168.0
X156.0Y-172.0
X156.0Y-174.0
X156.0Y-176.0
X156.0Y-209.0
X156.25Y-189.0
X156.85Y-179.2
X157.0Y-151.0
X158.0Y-91.0
X158.0Y-168.0
X158.0Y-172.0
X158.0Y-174.0
X158.0Y-176.0
X158.0Y-180.0
X158.0Y-209.0
X158.25Y-107.0
X158.25Y-110.5
X159.0Y-151.0
X159.6Y-162.8
X160.0Y-91.0
X160.0Y-172.0
X160.0Y-209.0
X161.0Y-151.0
X161.25Y-107.0
X161.25Y-110.5
X161.5Y-101.5
X162.0Y-209.0
X164.0Y-209.0
X164.25Y-99.0
X164.25Y-101.5
X164.25Y-104.0
X164.25Y-107.0
X164.25Y-110.5
X165.4Y-154.8
X166.0Y-209.0
X167.25Y-97.0
X167.25Y-99.0
X167.25Y-101.5
X167.25Y-104.0
X167.25Y-107.0
X167.25Y-110.5
X167.4Y-165.6
X168.0Y-209.0
X169.5Y-157.5
X170.0Y-209.0
X170.25Y-101.5
X170.25Y-104.0
X170.25Y-107.0
X170.25Y-110.5
X171.5Y-153.25
X172.0Y-209.0
X173.25Y-97.0
X173.25Y-99.0
X173.25Y-101.5
X173.25Y-104.0
X173.25Y-107.0
X173.85Y-155.9
X174.0Y-209.0
X175.5Y-154.5
X175.75Y-97.0
X175.75Y-99.0
X175.75Y-101.5
X175.75Y-104.0
X176.0Y-209.0
X176.3Y-187.55
X176.4Y-157.15
X176.75Y-162.45
X177.0Y-152.0
X177.45Y-187.55
X177.5Y-156.2
X177.95Y-161.25
X178.0Y-209.0
X178.25Y-97.0
X178.25Y-99.0
X178.5Y-155.3
X178.6Y-165.05
X178.7Y-187.55
X179.0Y-177.75
X179.05Y-160.15
X179.35Y-154.4
X179.75Y-178.5
X180.0Y-187.6
X180.0Y-209.0
X180.15Y-159.1
X180.2Y-172.1
X180.25Y-170.15
X180.35Y-165.05
X180.5Y-179.25
X180.6Y-184.5
X180.75Y-97.0
X180.75Y-99.0
X181.2Y-158.0
X181.25Y-180.0
X181.3Y-174.3
X181.5Y-184.5
X181.9Y-166.5
X182.0Y-177.0
X182.2Y-157.0
X182.4Y-184.5
X182.4Y-209.05
X182.45Y-206.5
X182.5Y-153.3
X182.55Y-203.85
X182.6Y-201.55
X182.65Y-198.25
X182.7Y-195.15
X182.8Y-177.8
X182.8Y-191.45
X182.85Y-187.75
X183.2Y-177.0
X183.4Y-184.5
X183.6Y-178.6
X184.35Y-174.25
X184.4Y-177.0
X184.4Y-184.5
X185.3Y-153.4
X185.35Y-162.4
X185.4Y-184.5
X185.4Y-202.8
X185.5Y-201.65
X185.75Y-165.25
X186.3Y-195.1
X186.35Y-191.45
X186.35Y-201.15
X186.4Y-184.5
X186.45Y-187.75
X187.0Y-173.4
X187.4Y-184.5
X187.845Y-160.555
X188.4Y-184.5
X188.4Y-209.05
X188.5Y-165.25
X188.75Y-203.65
X189.4Y-184.5
X189.4Y-199.4
X189.7Y-198.15
X190.0Y-187.8
X190.1Y-191.45
X190.1Y-194.9
X191.5Y-194.25
X191.5Y-198.0
X191.8Y-200.3
X192.15Y-164.5
X192.15Y-169.15
X192.15Y-170.7
X192.55Y-163.5
X193.0Y-188.0
X193.1Y-170.2
X193.75Y-199.1
X193.85Y-209.05
X194.0Y-201.35
X194.5Y-185.5
X194.7Y-172.9
X194.8Y-177.2
X194.8Y-178.4
X194.8Y-179.6
X194.9Y-205.1
X194.95Y-167.55
X195.0Y-159.75
X195.0Y-161.1
X195.05Y-203.4
X196.5Y-177.25
X196.6Y-187.55
X196.625Y-183.125
X196.7Y-188.35
X197.1Y-165.9
X197.5Y-172.1
X197.55Y-170.15
X198.2Y-195.7
X198.4Y-179.2
X198.5Y-184.9
X198.5Y-204.9
X198.762Y-166.637
X198.9Y-200.1
X199.2Y-177.1
X200.45Y-161.9
X200.75Y-153.45
X200.9Y-198.9
X200.9Y-201.55
X200.9Y-205.2
X201.0Y-187.55
X201.1Y-188.35
X201.3Y-195.7
X201.5Y-151.0
X201.5Y-208.0
X201.6Y-119.6
X201.7Y-180.15
X201.85Y-163.45
X201.9Y-203.3
X202.0Y-91.0
X202.0Y-96.0
X202.0Y-101.0
X202.0Y-108.0
X202.0Y-166.5
X202.2Y-120.6
X202.5Y-195.7
X202.8Y-119.6
X203.162Y-177.137
X203.4Y-120.6
X203.4Y-158.7
X203.5Y-180.1
X203.6Y-195.7
X203.6Y-203.2
X203.65Y-155.85
X203.8Y-206.6
X203.8Y-207.6
X204.0Y-91.0
X204.0Y-119.6
X204.6Y-120.6
X204.8Y-161.5
X204.8Y-195.7
X204.9Y-173.8
X204.9Y-174.75
X205.0Y-96.0
X205.2Y-119.6
X205.85Y-184.5
X206.0Y-91.0
X206.0Y-120.6
X206.0Y-195.7
X206.3Y-155.85
X206.4Y-119.6
X206.5Y-157.8
X206.85Y-184.5
X207.05Y-203.5
X207.1Y-177.25
X207.1Y-195.7
X207.5Y-111.5
X207.9Y-184.5
X208.0Y-91.0
X208.0Y-93.0
X208.0Y-108.0
X208.2Y-195.7
X208.75Y-163.25
X208.75Y-201.05
X208.75Y-203.45
X208.8Y-198.9
X209.3Y-195.7
X209.7Y-163.75
X209.8Y-119.6
X209.8Y-120.6
X209.9Y-168.45
X209.9Y-169.7
X210.0Y-91.0
X210.0Y-95.0
X210.0Y-97.0
X210.0Y-99.0
X210.0Y-101.0
X210.058Y-199.3
X210.1Y-162.95
X210.25Y-165.0
X210.625Y-194.025
X210.625Y-195.775
X211.4Y-198.9
X211.7Y-171.1
X211.7Y-195.7
X211.85Y-180.35
X212.0Y-91.0
X212.4Y-174.2
X212.5Y-202.2
X212.6Y-195.7
X212.75Y-179.7
X212.762Y-166.463
X212.8Y-160.8
X212.8Y-168.0
X212.8Y-169.9
X213.5Y-195.7
X214.0Y-91.0
X214.0Y-93.0
X214.0Y-95.0
X214.0Y-97.0
X214.0Y-99.0
X214.0Y-101.0
X214.0Y-103.0
X214.0Y-105.0
X214.0Y-107.0
X214.0Y-109.0
X214.4Y-191.7
X214.4Y-195.7
X214.75Y-186.45
X215.8Y-156.3
X215.8Y-207.55
X215.85Y-191.75
X215.85Y-195.7
X215.87Y-201.53
X215.9Y-179.0
X215.975Y-202.625
X216.0Y-168.5
X216.25Y-155.0
X216.65Y-204.1
X217.0Y-91.0
X217.0Y-93.0
X217.0Y-95.0
X217.0Y-97.0
X217.0Y-99.0
X217.0Y-101.0
X217.0Y-160.25
X217.25Y-199.0
X217.5Y-153.75
X217.65Y-192.9
X217.75Y-162.0
X217.95Y-195.7
X217.95Y-202.05
X218.5Y-160.5
X219.0Y-91.0
X219.1Y-199.0
X219.1Y-203.0
X219.2Y-195.7
X219.4Y-189.25
X219.5Y-168.5
X219.5Y-171.75
X220.1Y-199.0
X220.2Y-195.7
X220.25Y-153.75
X220.8Y-185.8
X221.0Y-91.0
X221.1Y-195.7
X222.0Y-195.7
X222.2Y-163.8
X222.55Y-192.65
X222.6Y-158.5
X222.75Y-153.75
X223.0Y-91.0
X223.1Y-195.7
X223.1Y-207.55
X223.15Y-180.2
X223.6Y-157.3
X223.694Y-201.406
X223.75Y-106.5
X223.75Y-110.0
X223.875Y-202.525
X224.5Y-195.7
X224.5Y-203.75
X224.7Y-192.6
X224.9Y-165.3
X225.0Y-91.0
X225.0Y-166.75
X225.75Y-195.75
X225.9Y-169.5
X225.9Y-178.3
X226.0Y-173.0
X226.4Y-157.4
X226.4Y-158.2
X226.5Y-153.5
X226.75Y-106.5
X226.75Y-110.0
X227.0Y-91.0
X227.0Y-202.8
X227.3Y-170.9
X228.1Y-192.75
X228.2Y-179.7
X228.25Y-198.75
X228.4Y-153.5
X228.8Y-192.3
X229.0Y-91.0
X229.0Y-157.25
X229.5Y-182.25
X229.75Y-101.0
X229.75Y-106.5
X229.75Y-110.0
X230.0Y-162.0
X230.0Y-164.0
X230.0Y-195.75
X230.6Y-167.5
X231.0Y-161.0
X231.0Y-163.0
X231.0Y-195.0
X231.4Y-207.55
X231.7Y-202.65
X231.731Y-201.469
X231.75Y-153.75
X231.75Y-157.0
X232.0Y-162.0
X232.0Y-179.5
X232.0Y-180.5
X232.35Y-195.25
X232.4Y-165.6
X232.4Y-204.1
X232.75Y-98.5
X232.75Y-101.0
X232.75Y-103.5
X232.75Y-106.5
X232.75Y-110.0
X232.9Y-192.1
X233.0Y-179.5
X233.0Y-180.5
X233.6Y-170.1
X233.7Y-193.2
X233.7Y-199.1
X233.8Y-172.3
X234.0Y-179.5
X234.0Y-180.5
X234.8Y-202.9
X234.95Y-199.2
X235.0Y-179.5
X235.0Y-180.5
X235.6Y-171.3
X235.75Y-96.5
X235.75Y-98.5
X235.75Y-101.0
X235.75Y-103.5
X235.75Y-106.5
X235.75Y-110.0
X236.0Y-179.5
X236.0Y-180.5
X236.3Y-155.8
X236.4Y-164.6
X236.474Y-169.629
X236.7Y-160.2
X237.0Y-179.5
X237.0Y-180.5
X237.1Y-163.825
X237.7Y-163.1
X237.8Y-171.3
X237.8Y-173.2
X237.8Y-175.3
X238.0Y-151.0
X238.0Y-160.1
X238.0Y-183.0
X238.1Y-158.8
X238.1Y-161.0
X238.3Y-180.0
X238.6Y-163.6
X238.75Y-101.0
X238.75Y-103.5
X238.75Y-106.5
X238.75Y-110.0
X238.945Y-198.907
X238.95Y-207.6
X239.0Y-167.0
X239.0Y-168.5
X239.35Y-180.0
X239.75Y-170.55
X240.212Y-198.975
X240.25Y-189.6
X240.25Y-193.2
X240.4Y-180.0
X240.45Y-204.65
X240.5Y-155.7
X240.6Y-151.0
X240.65Y-187.1
X240.75Y-164.25
X240.85Y-194.05
X240.85Y-171.75
X241.0Y-161.0
X241.4Y-180.0
X241.55Y-199.0
X241.75Y-96.5
X241.75Y-98.5
X241.75Y-101.0
X241.75Y-103.5
X241.75Y-106.5
X242.0Y-207.75
X242.1Y-180.25
X242.25Y-193.3
X242.5Y-191.95
X242.8Y-200.4
X242.9Y-203.0
X243.0Y-169.75
X243.3Y-179.6
X244.1Y-161.3
X244.25Y-96.5
X244.25Y-98.5
X244.25Y-101.0
X244.25Y-103.5
X244.3Y-191.55
X244.75Y-179.85
X245.0Y-158.6
X245.8Y-191.3
X245.854Y-198.646
X245.9Y-187.35
X246.3Y-161.8
X246.35Y-194.65
X246.354Y-197.746
X246.75Y-96.5
X246.75Y-98.5
X247.0Y-171.75
X247.2Y-207.65
X247.454Y-201.546
X247.55Y-178.85
X247.55Y-179.9
X248.2Y-204.9
X248.25Y-166.55
X248.3Y-167.6
X248.5Y-164.5
X248.5Y-172.5
X248.7Y-177.9
X248.7Y-178.85
X248.7Y-179.9
X248.95Y-192.95
X249.2Y-166.2
X249.25Y-98.5
X249.5Y-197.85
X249.8Y-169.9
X249.85Y-179.05
X249.95Y-159.35
X250.0Y-207.75
X250.2Y-166.4
X250.3Y-199.6
X250.35Y-170.7
X250.5Y-179.65
X250.5Y-203.0
X250.7Y-171.7
X251.4Y-171.0
X251.9Y-174.7
X252.1Y-153.0
X252.75Y-165.75
X252.8Y-175.2
X253.0Y-193.75
X253.05Y-192.95
X253.2Y-161.8
X253.25Y-188.3
X253.6Y-165.0
X254.1Y-187.4
X254.2Y-150.9
X254.2Y-164.3
X254.3Y-195.6
X254.3Y-197.9
X254.45Y-207.6
X254.7Y-173.2
X254.8Y-171.7
X254.8Y-174.2
X254.85Y-170.7
X254.95Y-186.5
X255.0Y-167.5
X255.169Y-201.531
X255.4Y-174.8
X255.8Y-169.6
X255.9Y-185.55
X255.95Y-204.7
X256.4Y-162.9
X256.5Y-168.7
X256.9Y-198.3
X257.1Y-169.6
X257.1Y-194.2
X257.2Y-184.2
X257.45Y-163.15
X257.8Y-168.7
X258.0Y-209.0
X258.1Y-200.3
X258.1Y-203.0
X258.5Y-169.6
X258.7Y-163.2
X259.2Y-168.7
X259.75Y-169.6
X260.5Y-194.8
X260.6Y-190.7
X260.8Y-169.0
X261.0Y-209.0
X261.1Y-169.8
X261.2Y-197.3
X261.5Y-170.7
X261.6Y-160.9
X261.6Y-163.2
X262.35Y-171.55
X262.75Y-172.75
X262.806Y-201.506
X262.9Y-170.4
X263.0Y-179.8
X263.0Y-182.5
X263.4Y-208.95
X263.55Y-205.1
X263.6Y-189.3
X263.6Y-199.1
X264.0Y-190.7
X264.0Y-192.1
X264.5Y-165.75
X265.4Y-179.9
X265.4Y-188.5
X265.6Y-195.0
X265.85Y-175.9
X265.9Y-175.0
X266.0Y-174.1
X266.0Y-178.0
X266.0Y-209.0
X266.2Y-197.8
X266.45Y-187.55
X266.8Y-163.9
X266.85Y-164.95
X267.0Y-160.5
X267.2Y-157.5
X267.25Y-186.7
X268.1Y-185.85
X268.5Y-170.0
X268.6Y-119.2
X268.8Y-191.4
X269.0Y-184.9
X269.25Y-120.25
X269.6Y-155.5
X269.75Y-183.95
X269.8Y-119.2
X269.8Y-167.75
X269.9Y-165.8
X270.0Y-91.0
X270.0Y-96.0
X270.0Y-102.0
X270.0Y-108.0
X270.2Y-163.3
X270.2Y-170.0
X270.3Y-160.6
X270.5Y-120.25
X270.5Y-183.1
X270.6Y-189.7
X270.8Y-167.8
X271.0Y-119.2
X271.1Y-163.9
X271.4Y-175.3
X271.5Y-155.5
X271.75Y-120.25
X271.83Y-173.87
X272.0Y-91.0
X272.0Y-172.5
X272.0Y-188.3
X272.2Y-119.2
X272.3Y-168.5
X272.325Y-164.675
X272.5Y-171.2
X272.6Y-170.3
X272.6Y-193.5
X273.0Y-96.0
X273.0Y-120.25
X273.25Y-172.35
X273.4Y-119.2
X273.5Y-157.5
X273.7Y-174.9
X273.7Y-186.6
X274.0Y-91.0
X274.0Y-209.0
X274.25Y-120.25
X274.5Y-111.0
X274.5Y-179.3
X274.565Y-163.135
X274.6Y-119.2
X274.7Y-173.8
X274.7Y-200.8
X274.7Y-204.5
X274.75Y-172.45
X274.9Y-171.2
X274.998Y-110.249
X275.4Y-192.0
X275.5Y-111.0
X275.5Y-151.0
X275.6Y-180.8
X275.6Y-184.9
X275.7Y-155.7
X276.0Y-91.0
X276.0Y-107.0
X276.0Y-110.25
X276.0Y-166.75
X276.5Y-111.0
X277.0Y-100.0
X277.0Y-209.0
X277.5Y-183.0
X277.6Y-188.5
X277.6Y-201.3
X277.6Y-204.7
X277.8Y-169.9
X277.8Y-173.6
X278.0Y-91.0
X278.4Y-163.1
X278.5Y-158.4
X278.5Y-160.5
X278.8Y-171.2
X279.0Y-172.5
X279.2Y-179.7
X279.7Y-168.0
X280.0Y-91.0
X280.0Y-209.0
X280.2Y-164.1
X280.4Y-186.2
X280.5Y-122.5
X280.5Y-125.5
X281.4Y-184.6
X281.6Y-193.6
X282.0Y-91.0
X282.0Y-93.0
X282.0Y-95.0
X282.0Y-97.0
X282.0Y-99.0
X282.0Y-101.0
X282.0Y-103.0
X282.0Y-105.0
X282.0Y-107.0
X282.0Y-109.0
X282.4Y-178.3
X282.6Y-183.9
X282.96Y-179.46
X283.0Y-122.5
X283.0Y-125.5
X283.0Y-128.5
X283.0Y-209.0
X283.2Y-195.4
X283.35Y-155.55
X284.0Y-151.0
X284.5Y-177.2
X285.0Y-91.0
X285.0Y-93.0
X285.0Y-95.0
X285.0Y-97.0
X285.0Y-99.0
X285.0Y-101.0
X285.0Y-103.0
X286.0Y-122.5
X286.0Y-125.5
X286.0Y-128.5
X286.0Y-131.5
X286.0Y-209.0
X287.0Y-91.0
X287.8Y-193.2
X288.325Y-189.025
X288.5Y-158.35
X288.5Y-160.55
X288.5Y-163.5
X288.5Y-166.0
X288.7Y-155.5
X289.0Y-91.0
X289.0Y-122.5
X289.0Y-125.5
X289.0Y-128.5
X289.0Y-131.5
X289.0Y-134.5
X289.0Y-151.0
X289.0Y-209.0
X289.2Y-170.5
X289.3Y-195.4
X289.548Y-186.5
X291.0Y-91.0
X291.9Y-170.5
X291.9Y-173.7
X291.948Y-188.348
X292.0Y-107.0
X292.0Y-110.5
X292.0Y-113.5
X292.0Y-116.5
X292.0Y-119.5
X292.0Y-125.5
X292.0Y-128.5
X292.0Y-131.5
X292.0Y-134.5
X292.0Y-137.5
X292.0Y-209.0
X293.0Y-91.0
X293.4Y-155.5
X293.7Y-171.2
X293.7Y-175.6
X294.8Y-191.0
X294.9Y-172.4
X295.0Y-91.0
X295.0Y-107.0
X295.0Y-110.5
X295.0Y-113.5
X295.0Y-116.5
X295.0Y-119.5
X295.0Y-122.5
X295.0Y-125.5
X295.0Y-128.5
X295.0Y-131.5
X295.0Y-134.5
X295.0Y-137.5
X295.0Y-140.0
X295.0Y-163.5
X295.0Y-166.0
X295.0Y-209.0
X295.05Y-160.45
X295.1Y-158.0
X295.1Y-177.0
X295.8Y-193.2
X296.2Y-173.7
X297.0Y-91.0
X297.0Y-178.8
X297.4Y-190.6
X297.7Y-175.1
X298.0Y-101.5
X298.0Y-107.0
X298.0Y-110.5
X298.0Y-113.5
X298.0Y-116.5
X298.0Y-122.5
X298.0Y-125.5
X298.0Y-128.5
X298.0Y-131.5
X298.0Y-134.5
X298.0Y-137.5
X298.0Y-209.0
X298.01Y-119.485
X298.1Y-151.0
X298.6Y-201.4
X298.8Y-180.8
X298.8Y-193.4
X298.9Y-199.5
X299.1Y-176.6
X299.5Y-188.8
X299.6Y-192.9
X300.5Y-163.5
X300.5Y-166.0
X300.8Y-178.2
X300.8Y-182.5
X301.0Y-97.0
X301.0Y-99.0
X301.0Y-101.5
X301.0Y-104.0
X301.0Y-107.0
X301.0Y-110.5
X301.0Y-113.5
X301.0Y-116.5
X301.0Y-119.5
X301.0Y-122.5
X301.0Y-125.5
X301.0Y-128.5
X301.0Y-134.5
X301.0Y-209.0
X302.0Y-145.0
X302.2Y-151.05
X302.5Y-155.0
X302.8Y-180.2
X302.9Y-191.9
X303.8Y-201.5
X303.85Y-158.25
X304.0Y-97.0
X304.0Y-99.0
X304.0Y-101.5
X304.0Y-104.0
X304.0Y-107.0
X304.0Y-110.5
X304.0Y-113.5
X304.0Y-116.5
X304.0Y-119.5
X304.0Y-122.5
X304.0Y-125.5
X304.0Y-128.5
X304.0Y-209.0
X304.7Y-177.625
X304.7Y-179.625
X304.725Y-175.025
X304.8Y-194.2
X305.0Y-142.0
X305.0Y-145.0
X305.25Y-163.5
X305.9Y-170.83
X306.0Y-151.0
X306.7Y-199.5
X307.0Y-101.5
X307.0Y-104.0
X307.0Y-107.0
X307.0Y-110.5
X307.0Y-113.5
X307.0Y-116.5
X307.0Y-119.5
X307.0Y-122.5
X307.0Y-125.5
X307.0Y-128.5
X307.0Y-209.0
X307.517Y-166.117
X307.55Y-171.95
X307.9Y-201.3
X308.5Y-139.0
X308.5Y-142.0
X308.5Y-145.0
X308.5Y-153.5
X309.9Y-189.0
X310.0Y-97.0
X310.0Y-99.0
X310.0Y-101.5
X310.0Y-104.0
X310.0Y-107.0
X310.0Y-148.0
X310.0Y-209.0
X310.25Y-183.75
X310.5Y-203.9
X310.9Y-168.3
X311.1Y-182.85
X311.6Y-192.2
X311.6Y-198.5
X311.85Y-177.85
X311.85Y-193.55
X312.0Y-136.0
X312.0Y-139.0
X312.0Y-142.0
X312.5Y-97.0
X312.5Y-99.0
X312.5Y-101.5
X312.5Y-104.0
X313.0Y-209.0
X313.9Y-196.2
X314.0Y-148.0
X315.0Y-97.0
X315.0Y-99.0
X315.0Y-113.5
X315.0Y-116.5
X315.0Y-119.5
X315.0Y-122.5
X315.0Y-125.0
X315.0Y-127.5
X315.0Y-130.0
X315.0Y-133.0
X315.0Y-136.0
X315.0Y-139.0
X315.1Y-194.9
X316.0Y-182.0
X316.0Y-184.0
X316.0Y-209.0
X316.4Y-190.8
X316.5Y-150.0
X317.5Y-97.0
X317.5Y-99.0
X317.5Y-153.5
X318.0Y-110.0
X318.0Y-113.5
X318.0Y-116.5
X318.0Y-119.5
X318.0Y-122.5
X318.0Y-125.0
X318.0Y-127.5
X318.0Y-130.0
X318.0Y-133.0
X318.0Y-136.0
X318.0Y-184.0
X318.0Y-194.9
X319.2Y-177.7
X319.2Y-179.6
X319.2Y-190.8
X320.0Y-152.5
X320.337Y-176.063
X320.5Y-136.0
X320.9Y-194.9
X321.0Y-113.5
X321.0Y-116.5
X321.0Y-119.5
X321.3Y-193.55
X322.5Y-105.5
X323.0Y-154.0
X323.0Y-156.0
X323.0Y-158.0
X323.0Y-160.0
X323.0Y-162.0
X323.0Y-164.0
X323.0Y-166.0
X323.0Y-168.0
X323.0Y-170.0
X323.0Y-172.0
X323.0Y-174.0
X323.0Y-176.0
X323.0Y-178.0
X323.0Y-209.0
X323.1Y-205.4
X323.2Y-190.8
X323.2Y-197.1
X323.2Y-199.7
X323.2Y-202.6
X323.9Y-182.6
X324.0Y-103.5
X324.0Y-105.5
X324.0Y-113.5
X324.0Y-116.5
X324.0Y-119.5
X324.0Y-122.5
X324.0Y-125.0
X324.0Y-127.5
X324.0Y-130.0
X324.0Y-185.5
X324.1Y-188.6
X324.25Y-152.0
X325.5Y-192.8
X325.5Y-198.5
X325.5Y-201.0
X325.5Y-203.6
X325.5Y-206.1
X325.5Y-208.9
X326.0Y-152.0
X326.2Y-167.15
X326.2Y-170.05
X326.2Y-172.95
X326.25Y-164.3
X326.25Y-175.45
X326.25Y-182.9
X326.3Y-159.4
X326.3Y-161.9
X326.3Y-179.85
X326.6Y-194.1
X327.5Y-113.5
X327.5Y-116.5
X327.5Y-122.5
X327.5Y-125.0
X327.5Y-127.5
X327.9Y-198.4
X328.0Y-91.0
X328.0Y-138.0
X328.0Y-140.0
X328.0Y-144.0
X328.0Y-146.0
X328.0Y-148.0
X328.0Y-150.0
X328.0Y-152.0
X328.0Y-209.0
X328.9Y-194.1
X330.0Y-91.0
X330.2Y-198.4
X330.5Y-137.75
X330.6Y-153.6
X331.0Y-113.5
X331.0Y-116.5
X331.0Y-209.0
X331.2Y-194.1
X331.5Y-122.5
X331.5Y-125.0
X332.0Y-91.0
X332.3Y-198.4
X333.3Y-197.05
X333.6Y-194.1
X334.0Y-91.0
X334.0Y-113.5
X334.0Y-116.5
X334.0Y-119.5
X334.0Y-122.5
X334.0Y-125.0
X334.0Y-209.0
X334.575Y-152.325
X336.0Y-194.1
X336.35Y-131.25
X336.6Y-152.6
X336.8Y-123.8
X336.8Y-125.3
X337.0Y-91.0
X337.0Y-138.0
X337.0Y-141.25
X337.0Y-144.75
X337.0Y-209.0
X337.2Y-196.3
X337.8Y-124.4
X338.0Y-128.5
X338.25Y-131.35
X338.25Y-133.5
X338.8Y-127.6
X339.0Y-91.0
X339.2Y-128.5
X339.647Y-198.688
X340.0Y-209.0
X340.8Y-194.8
X341.0Y-91.0
X341.9Y-196.3
X342.25Y-153.0
X342.4Y-148.9
X342.5Y-138.0
X342.5Y-141.0
X342.5Y-144.75
X343.0Y-91.0
X343.0Y-209.0
X343.6Y-132.5
X343.6Y-143.6
X344.767Y-188.333
X345.0Y-91.0
X345.25Y-137.75
X345.25Y-147.75
X345.5Y-141.0
X346.0Y-153.25
X346.0Y-209.0
X346.75Y-144.25
X347.0Y-91.0
X347.26Y-188.34
X348.4Y-148.9
X349.0Y-91.0
X349.0Y-209.0
X349.75Y-138.25
X349.8Y-188.4
X350.4Y-148.9
X350.5Y-147.0
X351.0Y-91.0
X353.0Y-91.0
X353.0Y-209.0
X353.5Y-132.5
X354.25Y-131.5
X354.25Y-133.5
X356.0Y-92.0
X356.0Y-207.0
X358.0Y-94.0
X358.0Y-205.0
X358.5Y-131.5
X358.5Y-133.5
X359.0Y-96.0
X359.0Y-98.0
X359.0Y-100.0
X359.0Y-102.0
X359.0Y-104.0
X359.0Y-106.0
X359.0Y-108.0
X359.0Y-110.0
X359.0Y-112.0
X359.0Y-114.0
X359.0Y-116.0
X359.0Y-118.0
X359.0Y-120.0
X359.0Y-122.0
X359.0Y-124.0
X359.0Y-126.0
X359.0Y-128.0
X359.0Y-193.0
X359.0Y-196.0
X359.0Y-199.0
X359.0Y-202.0
T3
X81.0Y-124.0
X81.0Y-127.0
X81.0Y-130.0
X84.0Y-124.0
X84.0Y-127.0
X84.0Y-130.0
X87.0Y-121.0
X87.0Y-127.0
X87.0Y-130.0
X88.5Y-201.0
X90.0Y-118.0
X90.0Y-121.0
X90.0Y-127.0
X90.0Y-130.0
X93.0Y-118.0
X93.0Y-121.0
X93.0Y-124.0
X93.0Y-127.0
X96.0Y-118.0
X96.0Y-121.0
X96.0Y-124.0
X99.0Y-118.0
X99.0Y-121.0
X99.0Y-124.0
X102.0Y-121.0
X102.0Y-124.0
X102.0Y-127.0
X131.25Y-158.5
X147.0Y-120.0
X147.0Y-124.0
X152.0Y-124.0
X152.0Y-128.0
X156.0Y-120.0
X156.0Y-128.0
X160.0Y-120.0
X160.0Y-124.0
X160.0Y-128.0
X161.4Y-156.0
X161.4Y-157.8
X164.0Y-120.0
X164.0Y-124.0
X164.0Y-128.0
X165.6Y-150.8
X165.9Y-199.6
X168.0Y-124.0
X170.0Y-151.6
X206.55Y-178.75
X208.0Y-123.5
X209.65Y-185.85
X214.0Y-121.0
X214.0Y-124.0
X215.6Y-165.4
X216.2Y-172.4
X217.0Y-124.0
X217.0Y-128.0
X221.0Y-124.0
X221.0Y-128.0
X221.0Y-132.0
X224.887Y-131.985
X225.0Y-120.0
X225.0Y-128.0
X225.0Y-134.0
X225.0Y-136.0
X227.0Y-132.0
X227.0Y-134.0
X227.0Y-136.0
X228.0Y-138.0
X229.0Y-120.0
X229.0Y-124.0
X229.0Y-128.0
X229.0Y-132.0
X229.0Y-134.0
X229.0Y-136.0
X229.75Y-171.3
X231.0Y-132.0
X231.0Y-134.0
X231.0Y-136.0
X231.1Y-170.0
X231.9Y-184.1
X233.0Y-120.0
X233.0Y-124.0
X233.0Y-128.0
X235.3Y-154.25
X236.1Y-168.2
X237.8Y-156.05
X238.0Y-124.0
X251.75Y-178.25
X254.6Y-159.6
X257.6Y-160.7
X264.9Y-162.5
X266.5Y-132.0
X267.5Y-131.0
X268.5Y-132.0
X276.0Y-127.0
X298.2Y-197.4
X339.0Y-101.7
X339.2Y-106.6
X342.1Y-108.6
X342.1Y-110.3
X342.2Y-106.9
X344.1Y-107.0
X344.1Y-108.6
X344.1Y-110.3
T4
X102.5Y-152.5
X102.5Y-155.0
X102.5Y-157.5
X102.5Y-160.0
X105.0Y-152.5
X105.0Y-155.0
X105.0Y-157.5
X105.0Y-160.0
X107.5Y-152.5
X107.5Y-155.0
X107.5Y-157.5
X107.5Y-160.0
X110.0Y-152.5
X110.0Y-155.0
X110.0Y-157.5
X110.0Y-160.0
X111.8Y-135.6
X111.8Y-137.0
X111.8Y-138.4
X112.5Y-152.5
X112.5Y-155.0
X112.5Y-157.5
X112.5Y-160.0
X113.2Y-134.2
X113.2Y-135.6
X113.2Y-137.0
X113.2Y-138.4
X113.2Y-139.8
X114.6Y-134.2
X114.6Y-135.6
X114.6Y-137.0
X114.6Y-138.4
X114.6Y-139.8
X116.0Y-137.0
X116.0Y-138.4
X116.0Y-139.8
X139.0Y-125.0
X160.5Y-160.5
X160.7Y-153.5
X167.6Y-152.0
X167.6Y-159.0
X175.55Y-188.65
X175.6Y-191.7
X175.7Y-190.15
X176.6Y-159.0
X180.2Y-137.2
X180.2Y-138.6
X180.4Y-135.8
X181.6Y-134.4
X181.6Y-135.8
X181.6Y-137.2
X181.6Y-138.6
X181.6Y-140.0
X183.0Y-134.4
X183.0Y-135.8
X183.0Y-137.2
X183.0Y-138.6
X183.0Y-140.0
X184.4Y-135.8
X184.4Y-137.2
X184.4Y-138.6
X184.4Y-140.0
X186.4Y-152.5
X186.55Y-154.25
X246.65Y-181.8
X247.4Y-137.2
X247.4Y-138.6
X247.6Y-135.8
X248.8Y-134.4
X248.8Y-135.8
X248.8Y-137.2
X248.8Y-138.6
X248.8Y-140.0
X250.2Y-134.4
X250.2Y-135.8
X250.2Y-137.2
X250.2Y-138.6
X250.2Y-140.0
X251.3Y-166.8
X251.6Y-135.8
X251.6Y-137.2
X251.6Y-138.6
X251.6Y-140.0
X278.8Y-177.9
X278.9Y-176.0
X282.6Y-167.2
X282.8Y-168.6
X303.0Y-197.3
X304.2Y-189.4
X308.5Y-191.1
X310.6Y-172.5
X310.6Y-181.2
X314.1Y-172.6
X314.1Y-181.3
T5
X65.25Y-97.5
X65.25Y-202.5
X65.909Y-95.909
X65.909Y-99.091
X65.909Y-200.909
X65.909Y-204.091
X67.5Y-95.25
X67.5Y-99.75
X67.5Y-200.25
X67.5Y-204.75
X69.091Y-95.909
X69.091Y-99.091
X69.091Y-200.909
X69.091Y-204.091
X69.75Y-97.5
X69.75Y-202.5
X139.0Y-152.5
X139.659Y-150.909
X139.659Y-154.091
X141.25Y-150.25
X141.25Y-154.75
X142.841Y-150.909
X142.841Y-154.091
X143.5Y-152.5
X277.75Y-152.5
X278.409Y-150.909
X278.409Y-154.091
X280.0Y-150.25
X280.0Y-154.75
X281.591Y-150.909
X281.591Y-154.091
X282.25Y-152.5
X350.25Y-97.5
X350.5Y-202.5
X350.909Y-95.909
X350.909Y-99.091
X351.159Y-200.909
X351.159Y-204.091
X352.5Y-95.25
X352.5Y-99.75
X352.75Y-200.25
X352.75Y-204.75
X354.091Y-95.909
X354.091Y-99.091
X354.341Y-200.909
X354.341Y-204.091
X354.75Y-97.5
X355.0Y-202.5
T6
X184.125Y-205.025
X184.125Y-206.295
X184.125Y-207.565
X185.395Y-205.025
X185.395Y-206.295
X185.395Y-207.565
X191.28Y-205.06
X191.28Y-206.33
X191.28Y-207.6
X192.55Y-205.06
X192.55Y-206.33
X192.55Y-207.6
X212.2Y-205.53
X212.2Y-206.8
X213.47Y-205.53
X213.47Y-206.8
X219.944Y-205.536
X219.944Y-206.806
X221.214Y-205.536
X221.214Y-206.806
X227.506Y-205.474
X227.506Y-206.744
X228.776Y-205.474
X228.776Y-206.744
X235.762Y-205.53
X235.762Y-206.8
X237.032Y-205.53
X237.032Y-206.8
X243.534Y-205.576
X243.534Y-206.846
X244.804Y-205.576
X244.804Y-206.846
X251.319Y-205.586
X251.319Y-206.856
X252.589Y-205.586
X252.589Y-206.856
X258.936Y-205.536
X258.936Y-206.806
X260.206Y-205.536
X260.206Y-206.806
X300.688Y-170.35
X300.688Y-171.62
X300.688Y-172.89
X319.287Y-170.3
X319.287Y-171.57
X319.287Y-172.84
X331.1Y-141.725
X331.1Y-142.995
X331.1Y-144.265
X331.1Y-146.7
X331.1Y-147.97
T7
X122.6Y-111.99
X122.6Y-119.61
X122.98Y-107.4
X122.99Y-101.2
X130.6Y-107.4
X130.61Y-101.2
X133.6Y-104.19
X133.6Y-111.81
X190.79Y-107.6
X190.8Y-111.59
X190.8Y-119.21
X190.98Y-101.2
X197.08Y-206.3
X197.08Y-207.57
X198.35Y-206.3
X198.35Y-207.57
X198.41Y-107.6
X198.6Y-101.2
X201.2Y-104.19
X201.2Y-111.81
X258.25Y-111.25
X258.25Y-118.87
X259.19Y-101.25
X259.19Y-106.75
X266.81Y-101.25
X266.81Y-106.75
X269.5Y-103.94
X269.5Y-111.56
X326.75Y-110.69
X326.75Y-118.31
X327.13Y-106.75
X327.19Y-101.25
X334.75Y-106.75
X334.81Y-101.25
X337.5Y-103.94
X337.5Y-111.56
T8
X127.4Y-111.985
X127.4Y-119.605
X195.8Y-111.585
X195.8Y-119.205
X263.5Y-111.185
X263.5Y-118.805
X332.0Y-110.75
X332.0Y-118.37
T9
X111.916Y-100.111
X113.25Y-92.932
X113.25Y-95.432
X113.684Y-101.879
X116.4Y-131.5
X116.4Y-135.0
X125.0Y-124.25
X125.0Y-127.75
X155.0Y-163.282
X155.0Y-165.782
X173.018Y-176.182
X174.2Y-167.682
X174.2Y-170.182
X175.518Y-176.182
X179.616Y-100.411
X181.0Y-93.182
X181.0Y-95.682
X181.384Y-102.179
X184.4Y-130.85
X184.4Y-134.35
X193.4Y-124.45
X193.4Y-127.95
X247.616Y-100.411
X249.0Y-93.182
X249.0Y-95.682
X249.384Y-102.179
X252.0Y-130.65
X252.0Y-134.15
X261.0Y-123.0
X261.0Y-126.5
X296.548Y-184.648
X296.548Y-187.148
X307.1Y-184.882
X307.1Y-187.382
X310.087Y-157.9
X312.587Y-157.9
X314.2Y-186.482
X314.2Y-188.982
X315.616Y-100.661
X317.0Y-93.25
X317.0Y-95.75
X317.384Y-102.429
X321.0Y-128.5
X321.0Y-132.0
X329.5Y-122.5
X329.5Y-126.0
T10
X336.553Y-200.59
X339.053Y-200.59
X341.053Y-200.59
X343.553Y-200.59
T11
X151.8Y-169.8
X159.5Y-183.125
X235.4Y-192.8
T12
X68.957Y-187.482
X69.057Y-152.183
X69.457Y-177.782
X73.957Y-187.482
X74.057Y-152.183
X74.457Y-177.782
X78.957Y-187.482
X79.057Y-152.183
X79.457Y-177.782
X83.957Y-187.482
X84.057Y-152.183
X84.457Y-177.782
X103.25Y-92.618
X103.25Y-97.618
X103.832Y-104.886
X107.368Y-108.421
X119.0Y-98.085
X120.7Y-93.005
X122.4Y-98.085
X124.1Y-93.005
X125.8Y-98.085
X127.5Y-93.005
X129.2Y-98.085
X130.9Y-93.005
X132.6Y-98.085
X134.3Y-93.005
X136.0Y-98.085
X171.0Y-92.868
X171.0Y-97.868
X171.664Y-105.136
X175.2Y-108.671
X187.0Y-98.085
X188.7Y-93.005
X190.4Y-98.085
X192.1Y-93.005
X193.8Y-98.085
X195.5Y-93.005
X197.2Y-98.085
X198.9Y-93.005
X200.6Y-98.085
X202.3Y-93.005
X204.0Y-98.085
X239.0Y-92.868
X239.0Y-97.868
X239.714Y-105.214
X243.25Y-108.75
X255.0Y-98.085
X256.7Y-93.005
X258.4Y-98.085
X260.1Y-93.005
X260.145Y-157.7
X261.8Y-98.085
X262.685Y-157.7
X263.5Y-93.005
X265.2Y-98.085
X265.225Y-157.7
X266.9Y-93.005
X268.6Y-98.085
X270.3Y-93.005
X272.0Y-98.085
X307.0Y-93.118
X307.0Y-98.118
X307.464Y-105.214
X311.0Y-108.75
X323.0Y-98.085
X324.7Y-93.005
X326.4Y-98.085
X328.1Y-93.005
X329.8Y-98.085
X331.5Y-93.005
X333.2Y-98.085
X334.9Y-93.005
X336.6Y-98.085
X338.3Y-93.005
X340.0Y-98.085
T13
X121.345Y-154.16
X121.345Y-156.7
X121.345Y-159.24
T14
X69.322Y-139.4
X73.522Y-165.0
X76.822Y-139.4
X81.022Y-165.0
X82.697Y-118.197
X88.0Y-123.5
X89.482Y-99.791
X93.018Y-103.326
X98.2Y-131.578
X98.2Y-139.078
X99.0Y-181.176
X99.0Y-186.176
X101.324Y-119.0
X106.324Y-119.0
X110.676Y-183.75
X115.676Y-183.75
X150.848Y-117.697
X156.152Y-123.0
X157.232Y-100.041
X160.768Y-103.576
X166.0Y-131.778
X166.0Y-139.278
X169.0Y-119.2
X174.0Y-119.2
X219.048Y-117.997
X224.352Y-123.3
X225.464Y-99.964
X229.0Y-103.5
X234.0Y-131.728
X234.0Y-139.228
X237.074Y-119.25
X242.074Y-119.25
X286.848Y-117.697
X292.152Y-123.0
X293.464Y-100.214
X297.0Y-103.75
X302.0Y-131.25
X302.0Y-138.75
X305.324Y-119.25
X310.324Y-119.25
T15
X69.4Y-104.55
X69.4Y-127.05
X92.5Y-147.0
X92.5Y-169.5
T16
X116.4Y-110.0
X116.4Y-125.24
X184.4Y-109.2
X184.4Y-124.44
X252.0Y-109.25
X252.0Y-124.49
X321.0Y-108.63
X321.0Y-123.87
T17
X333.482Y-203.3
X346.623Y-203.3
T18
X64.5Y-184.5
X64.5Y-190.5
X64.6Y-148.4
X64.6Y-155.2
X64.6Y-171.4
X64.6Y-178.0
T19
X67.5Y-97.5
X67.5Y-202.5
X141.25Y-152.5
X280.0Y-152.5
X352.5Y-97.5
X352.75Y-202.5
T12
X76.6Y-199.9G85X75.6Y-199.9
G05
X76.6Y-205.4G85X75.6Y-205.4
G05
X78.6Y-207.8G85X77.6Y-207.8
G05
X145.0Y-199.6G85X144.0Y-199.6
G05
X145.0Y-205.1G85X144.0Y-205.1
G05
X147.0Y-207.5G85X146.0Y-207.5
G05
X267.95Y-199.75G85X266.95Y-199.75
G05
X267.95Y-205.25G85X266.95Y-205.25
G05
X269.95Y-207.65G85X268.95Y-207.65
G05
X317.55Y-199.8G85X316.55Y-199.8
G05
X317.55Y-205.3G85X316.55Y-205.3
G05
X319.55Y-207.7G85X318.55Y-207.7
G05
T0
M30
