G04 #@! TF.GenerationSoftware,KiCad,Pcbnew,(6.0.0)*
G04 #@! TF.CreationDate,2022-01-30T16:53:22+01:00*
G04 #@! TF.ProjectId,block-sch,626c6f63-6b2d-4736-9368-2e6b69636164,rev?*
G04 #@! TF.SameCoordinates,Original*
G04 #@! TF.FileFunction,Soldermask,Bot*
G04 #@! TF.FilePolarity,Negative*
%FSLAX46Y46*%
G04 Gerber Fmt 4.6, Leading zero omitted, Abs format (unit mm)*
G04 Created by KiCad (PCBNEW (6.0.0)) date 2022-01-30 16:53:22*
%MOMM*%
%LPD*%
G01*
G04 APERTURE LIST*
G04 Aperture macros list*
%AMRotRect*
0 Rectangle, with rotation*
0 The origin of the aperture is its center*
0 $1 length*
0 $2 width*
0 $3 Rotation angle, in degrees counterclockwise*
0 Add horizontal line*
21,1,$1,$2,0,0,$3*%
G04 Aperture macros list end*
G04 #@! TA.AperFunction,Profile*
%ADD10C,0.100000*%
G04 #@! TD*
%ADD11RotRect,1.600000X1.600000X135.000000*%
%ADD12C,1.600000*%
%ADD13RotRect,2.000000X2.000000X135.000000*%
%ADD14C,2.000000*%
%ADD15R,2.400000X2.400000*%
%ADD16C,2.400000*%
%ADD17RotRect,2.400000X2.400000X135.000000*%
%ADD18R,2.000000X2.000000*%
%ADD19R,1.600000X1.600000*%
%ADD20R,1.500000X1.500000*%
%ADD21O,1.500000X1.500000*%
%ADD22C,1.400000*%
%ADD23O,1.400000X1.400000*%
%ADD24C,2.800000*%
%ADD25O,2.800000X2.800000*%
%ADD26R,1.800000X1.800000*%
%ADD27O,1.800000X1.800000*%
%ADD28R,2.000000X1.905000*%
%ADD29O,2.000000X1.905000*%
%ADD30C,0.800000*%
%ADD31C,6.000000*%
%ADD32R,1.000000X1.000000*%
%ADD33O,1.000000X1.000000*%
%ADD34C,2.700000*%
%ADD35C,3.000000*%
%ADD36O,2.800000X1.800000*%
%ADD37R,1.700000X1.700000*%
%ADD38O,1.700000X1.700000*%
%ADD39R,1.428000X1.428000*%
%ADD40C,1.428000*%
%ADD41C,3.276000*%
G04 APERTURE END LIST*
D10*
X67500000Y-210000000D02*
X352500000Y-210000000D01*
X67500000Y-90000000D02*
G75*
G03*
X60000000Y-97500000I0J-7500000D01*
G01*
X60000000Y-97500000D02*
X60000000Y-202500000D01*
X352500000Y-210000000D02*
G75*
G03*
X360000000Y-202500000I0J7500000D01*
G01*
X360000000Y-202500000D02*
X360000000Y-97500000D01*
X360000000Y-97500000D02*
G75*
G03*
X352500000Y-90000000I-7500000J0D01*
G01*
X352500000Y-90000000D02*
X67500000Y-90000000D01*
X60000000Y-202500000D02*
G75*
G03*
X67500000Y-210000000I7500000J0D01*
G01*
D11*
X249383883Y-102178677D03*
D12*
X247616116Y-100410910D03*
D11*
X317383883Y-102428677D03*
D12*
X315616116Y-100660910D03*
D11*
X113683883Y-101878677D03*
D12*
X111916116Y-100110910D03*
D13*
X243250000Y-108750000D03*
D14*
X239714466Y-105214466D03*
D13*
X175200000Y-108671454D03*
D14*
X171664466Y-105135920D03*
D13*
X311000000Y-108750000D03*
D14*
X307464466Y-105214466D03*
D13*
X107367767Y-108421454D03*
D14*
X103832233Y-104885920D03*
D15*
X242073959Y-119250000D03*
D16*
X237073959Y-119250000D03*
D15*
X174000000Y-119200000D03*
D16*
X169000000Y-119200000D03*
D15*
X310323959Y-119250000D03*
D16*
X305323959Y-119250000D03*
D15*
X106323959Y-119000000D03*
D16*
X101323959Y-119000000D03*
D15*
X234000000Y-139227780D03*
D16*
X234000000Y-131727780D03*
D15*
X166000000Y-139277780D03*
D16*
X166000000Y-131777780D03*
D15*
X302000000Y-138750000D03*
D16*
X302000000Y-131250000D03*
D15*
X98200000Y-139077780D03*
D16*
X98200000Y-131577780D03*
D17*
X224351650Y-123300241D03*
D16*
X219048349Y-117996940D03*
D17*
X156151650Y-123000241D03*
D16*
X150848349Y-117696940D03*
D17*
X292151650Y-123000242D03*
D16*
X286848349Y-117696941D03*
D17*
X88000000Y-123500000D03*
D16*
X82696699Y-118196699D03*
D12*
X261000000Y-126500000D03*
X261000000Y-123000000D03*
X193400000Y-127950000D03*
X193400000Y-124450000D03*
D17*
X229000000Y-103500000D03*
D16*
X225464466Y-99964466D03*
D12*
X252000000Y-134150000D03*
X252000000Y-130650000D03*
D17*
X160767767Y-103576111D03*
D16*
X157232233Y-100040577D03*
D12*
X184400000Y-134350000D03*
X184400000Y-130850000D03*
X329500000Y-126000000D03*
X329500000Y-122500000D03*
X125000000Y-127750000D03*
X125000000Y-124250000D03*
D17*
X297000000Y-103750000D03*
D16*
X293464466Y-100214466D03*
D12*
X321000000Y-132000000D03*
X321000000Y-128500000D03*
D17*
X93017767Y-103326111D03*
D16*
X89482233Y-99790577D03*
D12*
X116400000Y-135000000D03*
X116400000Y-131500000D03*
D18*
X239000000Y-97867677D03*
D14*
X239000000Y-92867677D03*
D18*
X171000000Y-97867677D03*
D14*
X171000000Y-92867677D03*
D18*
X307000000Y-98117677D03*
D14*
X307000000Y-93117677D03*
D18*
X103250000Y-97617677D03*
D14*
X103250000Y-92617677D03*
D19*
X249000000Y-95682379D03*
D12*
X249000000Y-93182379D03*
D19*
X181000000Y-95682379D03*
D12*
X181000000Y-93182379D03*
D19*
X317000000Y-95750000D03*
D12*
X317000000Y-93250000D03*
D19*
X113250000Y-95432379D03*
D12*
X113250000Y-92932379D03*
D15*
X69322220Y-139400000D03*
D16*
X76822220Y-139400000D03*
D15*
X73522220Y-165000000D03*
D16*
X81022220Y-165000000D03*
D19*
X173017621Y-176182380D03*
D12*
X175517621Y-176182380D03*
D19*
X155000000Y-165782380D03*
D12*
X155000000Y-163282380D03*
D20*
X195800000Y-111585000D03*
D21*
X195800000Y-119205000D03*
D20*
X332000000Y-110750000D03*
D21*
X332000000Y-118370000D03*
D20*
X127400000Y-111985000D03*
D21*
X127400000Y-119605000D03*
D18*
X84057500Y-152182500D03*
D14*
X79057500Y-152182500D03*
X74057500Y-152182500D03*
X69057500Y-152182500D03*
D18*
X84457500Y-177782500D03*
D14*
X79457500Y-177782500D03*
X74457500Y-177782500D03*
X69457500Y-177782500D03*
D22*
X269500000Y-111560000D03*
D23*
X269500000Y-103940000D03*
D22*
X201200000Y-111810000D03*
D23*
X201200000Y-104190000D03*
D22*
X337500000Y-111560000D03*
D23*
X337500000Y-103940000D03*
D22*
X133600000Y-111810000D03*
D23*
X133600000Y-104190000D03*
D22*
X266810000Y-101250000D03*
D23*
X259190000Y-101250000D03*
D22*
X198600000Y-101200000D03*
D23*
X190980000Y-101200000D03*
D22*
X266810000Y-106750000D03*
D23*
X259190000Y-106750000D03*
D22*
X334810000Y-101250000D03*
D23*
X327190000Y-101250000D03*
D22*
X198410000Y-107600000D03*
D23*
X190790000Y-107600000D03*
D22*
X130610000Y-101200000D03*
D23*
X122990000Y-101200000D03*
D22*
X258250000Y-111250000D03*
D23*
X258250000Y-118870000D03*
D22*
X334750000Y-106750000D03*
D23*
X327130000Y-106750000D03*
D22*
X130600000Y-107400000D03*
D23*
X122980000Y-107400000D03*
D22*
X190800000Y-111590000D03*
D23*
X190800000Y-119210000D03*
D24*
X252000000Y-109250000D03*
D25*
X252000000Y-124490000D03*
D24*
X184400000Y-109200000D03*
D25*
X184400000Y-124440000D03*
D22*
X326750000Y-110690000D03*
D23*
X326750000Y-118310000D03*
D22*
X122600000Y-111990000D03*
D23*
X122600000Y-119610000D03*
D24*
X321000000Y-108630000D03*
D25*
X321000000Y-123870000D03*
D24*
X116400000Y-110000000D03*
D25*
X116400000Y-125240000D03*
D26*
X323000000Y-98085000D03*
D27*
X324700000Y-93005000D03*
X326400000Y-98085000D03*
X328100000Y-93005000D03*
X329800000Y-98085000D03*
X331500000Y-93005000D03*
X333200000Y-98085000D03*
X334900000Y-93005000D03*
X336600000Y-98085000D03*
X338300000Y-93005000D03*
X340000000Y-98085000D03*
D26*
X119000000Y-98085000D03*
D27*
X120700000Y-93005000D03*
X122400000Y-98085000D03*
X124100000Y-93005000D03*
X125800000Y-98085000D03*
X127500000Y-93005000D03*
X129200000Y-98085000D03*
X130900000Y-93005000D03*
X132600000Y-98085000D03*
X134300000Y-93005000D03*
X136000000Y-98085000D03*
D11*
X181383883Y-102178677D03*
D12*
X179616116Y-100410910D03*
D19*
X174200000Y-170182380D03*
D12*
X174200000Y-167682380D03*
D20*
X263500000Y-111185000D03*
D21*
X263500000Y-118805000D03*
D26*
X187000000Y-98085000D03*
D27*
X188700000Y-93005000D03*
X190400000Y-98085000D03*
X192100000Y-93005000D03*
X193800000Y-98085000D03*
X195500000Y-93005000D03*
X197200000Y-98085000D03*
X198900000Y-93005000D03*
X200600000Y-98085000D03*
X202300000Y-93005000D03*
X204000000Y-98085000D03*
D28*
X121345000Y-159240000D03*
D29*
X121345000Y-156700000D03*
X121345000Y-154160000D03*
D26*
X255000000Y-98085000D03*
D27*
X256700000Y-93005000D03*
X258400000Y-98085000D03*
X260100000Y-93005000D03*
X261800000Y-98085000D03*
X263500000Y-93005000D03*
X265200000Y-98085000D03*
X266900000Y-93005000D03*
X268600000Y-98085000D03*
X270300000Y-93005000D03*
X272000000Y-98085000D03*
D18*
X83957500Y-187482500D03*
D14*
X78957500Y-187482500D03*
X73957500Y-187482500D03*
X68957500Y-187482500D03*
D30*
X350500000Y-202500000D03*
X352750000Y-200250000D03*
X351159010Y-204090990D03*
X355000000Y-202500000D03*
X354340990Y-204090990D03*
X351159010Y-200909010D03*
D31*
X352750000Y-202500000D03*
D30*
X354340990Y-200909010D03*
X352750000Y-204750000D03*
X280000000Y-150250000D03*
X281590990Y-150909010D03*
X281590990Y-154090990D03*
X282250000Y-152500000D03*
X277750000Y-152500000D03*
X280000000Y-154750000D03*
X278409010Y-150909010D03*
X278409010Y-154090990D03*
D31*
X280000000Y-152500000D03*
X141250000Y-152500000D03*
D30*
X143500000Y-152500000D03*
X139000000Y-152500000D03*
X142840990Y-154090990D03*
X142840990Y-150909010D03*
X141250000Y-154750000D03*
X139659010Y-154090990D03*
X141250000Y-150250000D03*
X139659010Y-150909010D03*
X65250000Y-202500000D03*
X65909010Y-204090990D03*
X65909010Y-200909010D03*
X69090990Y-200909010D03*
X69090990Y-204090990D03*
X67500000Y-204750000D03*
X69750000Y-202500000D03*
X67500000Y-200250000D03*
D31*
X67500000Y-202500000D03*
D30*
X354750000Y-97500000D03*
X350909010Y-95909010D03*
X350250000Y-97500000D03*
X354090990Y-99090990D03*
X352500000Y-95250000D03*
X354090990Y-95909010D03*
X350909010Y-99090990D03*
X352500000Y-99750000D03*
D31*
X352500000Y-97500000D03*
D30*
X65909010Y-95909010D03*
D31*
X67500000Y-97500000D03*
D30*
X69750000Y-97500000D03*
X67500000Y-99750000D03*
X65250000Y-97500000D03*
X69090990Y-95909010D03*
X69090990Y-99090990D03*
X65909010Y-99090990D03*
X67500000Y-95250000D03*
D15*
X110676041Y-183750000D03*
D16*
X115676041Y-183750000D03*
D32*
X331100000Y-146700000D03*
D33*
X331100000Y-147970000D03*
D32*
X192550000Y-207600000D03*
D33*
X191280000Y-207600000D03*
X192550000Y-206330000D03*
X191280000Y-206330000D03*
X192550000Y-205060000D03*
X191280000Y-205060000D03*
D32*
X184125000Y-205025000D03*
D33*
X185395000Y-205025000D03*
X184125000Y-206295000D03*
X185395000Y-206295000D03*
X184125000Y-207565000D03*
X185395000Y-207565000D03*
D34*
X69400000Y-115800000D03*
D35*
X69400000Y-127050000D03*
X69400000Y-104550000D03*
D15*
X99000000Y-181176041D03*
D16*
X99000000Y-186176041D03*
D19*
X314200000Y-188982380D03*
D12*
X314200000Y-186482380D03*
D36*
X267450000Y-199750000D03*
X269450000Y-207650000D03*
X267450000Y-205250000D03*
D32*
X227506250Y-206743750D03*
D33*
X227506250Y-205473750D03*
X228776250Y-206743750D03*
X228776250Y-205473750D03*
D32*
X331100000Y-141725000D03*
D33*
X331100000Y-142995000D03*
X331100000Y-144265000D03*
D36*
X76100000Y-199900000D03*
X78100000Y-207800000D03*
X76100000Y-205400000D03*
D19*
X296547621Y-184647621D03*
D12*
X296547621Y-187147621D03*
D19*
X307100000Y-187382380D03*
D12*
X307100000Y-184882380D03*
D32*
X251318750Y-206856250D03*
D33*
X251318750Y-205586250D03*
X252588750Y-206856250D03*
X252588750Y-205586250D03*
D19*
X312587500Y-157900000D03*
D12*
X310087500Y-157900000D03*
D32*
X212200000Y-206800000D03*
D33*
X212200000Y-205530000D03*
X213470000Y-206800000D03*
X213470000Y-205530000D03*
D37*
X265225000Y-157700000D03*
D38*
X262685000Y-157700000D03*
X260145000Y-157700000D03*
D32*
X235762500Y-206800000D03*
D33*
X235762500Y-205530000D03*
X237032500Y-206800000D03*
X237032500Y-205530000D03*
D32*
X319287500Y-170300000D03*
D33*
X319287500Y-171570000D03*
X319287500Y-172840000D03*
D32*
X300687500Y-170350000D03*
D33*
X300687500Y-171620000D03*
X300687500Y-172890000D03*
D32*
X243533750Y-206846250D03*
D33*
X243533750Y-205576250D03*
X244803750Y-206846250D03*
X244803750Y-205576250D03*
D32*
X258936250Y-206806250D03*
D33*
X258936250Y-205536250D03*
X260206250Y-206806250D03*
X260206250Y-205536250D03*
D36*
X317050000Y-199800000D03*
X319050000Y-207700000D03*
X317050000Y-205300000D03*
D32*
X219943750Y-206806250D03*
D33*
X219943750Y-205536250D03*
X221213750Y-206806250D03*
X221213750Y-205536250D03*
D39*
X336552500Y-200590000D03*
D40*
X339052500Y-200590000D03*
X341052500Y-200590000D03*
X343552500Y-200590000D03*
D41*
X333482500Y-203300000D03*
X346622500Y-203300000D03*
D36*
X144500000Y-199600000D03*
X146500000Y-207500000D03*
X144500000Y-205100000D03*
D34*
X92500000Y-158250000D03*
D35*
X92500000Y-169500000D03*
X92500000Y-147000000D03*
D32*
X198350000Y-206300000D03*
D33*
X197080000Y-206300000D03*
X198350000Y-207570000D03*
X197080000Y-207570000D03*
M02*
