G04 #@! TF.GenerationSoftware,KiCad,Pcbnew,(6.0.0)*
G04 #@! TF.CreationDate,2022-01-30T16:53:22+01:00*
G04 #@! TF.ProjectId,block-sch,626c6f63-6b2d-4736-9368-2e6b69636164,rev?*
G04 #@! TF.SameCoordinates,Original*
G04 #@! TF.FileFunction,Paste,Top*
G04 #@! TF.FilePolarity,Positive*
%FSLAX46Y46*%
G04 Gerber Fmt 4.6, Leading zero omitted, Abs format (unit mm)*
G04 Created by KiCad (PCBNEW (6.0.0)) date 2022-01-30 16:53:22*
%MOMM*%
%LPD*%
G01*
G04 APERTURE LIST*
G04 Aperture macros list*
%AMRoundRect*
0 Rectangle with rounded corners*
0 $1 Rounding radius*
0 $2 $3 $4 $5 $6 $7 $8 $9 X,Y pos of 4 corners*
0 Add a 4 corners polygon primitive as box body*
4,1,4,$2,$3,$4,$5,$6,$7,$8,$9,$2,$3,0*
0 Add four circle primitives for the rounded corners*
1,1,$1+$1,$2,$3*
1,1,$1+$1,$4,$5*
1,1,$1+$1,$6,$7*
1,1,$1+$1,$8,$9*
0 Add four rect primitives between the rounded corners*
20,1,$1+$1,$2,$3,$4,$5,0*
20,1,$1+$1,$4,$5,$6,$7,0*
20,1,$1+$1,$6,$7,$8,$9,0*
20,1,$1+$1,$8,$9,$2,$3,0*%
%AMOutline4P*
0 Free polygon, 4 corners , with rotation*
0 The origin of the aperture is its center*
0 number of corners: always 4*
0 $1 to $8 corner X, Y*
0 $9 Rotation angle, in degrees counterclockwise*
0 create outline with 4 corners*
4,1,4,$1,$2,$3,$4,$5,$6,$7,$8,$1,$2,$9*%
G04 Aperture macros list end*
G04 #@! TA.AperFunction,Profile*
%ADD10C,0.100000*%
G04 #@! TD*
%ADD11RoundRect,0.250000X-0.650000X0.325000X-0.650000X-0.325000X0.650000X-0.325000X0.650000X0.325000X0*%
%ADD12RoundRect,0.250000X0.325000X0.650000X-0.325000X0.650000X-0.325000X-0.650000X0.325000X-0.650000X0*%
%ADD13RoundRect,0.250000X0.650000X-0.325000X0.650000X0.325000X-0.650000X0.325000X-0.650000X-0.325000X0*%
%ADD14RoundRect,0.250000X-0.325000X-0.650000X0.325000X-0.650000X0.325000X0.650000X-0.325000X0.650000X0*%
%ADD15RoundRect,0.250000X-0.312500X-0.625000X0.312500X-0.625000X0.312500X0.625000X-0.312500X0.625000X0*%
%ADD16RoundRect,0.250000X-0.625000X0.312500X-0.625000X-0.312500X0.625000X-0.312500X0.625000X0.312500X0*%
%ADD17RoundRect,0.020500X0.184500X-0.759500X0.184500X0.759500X-0.184500X0.759500X-0.184500X-0.759500X0*%
%ADD18R,1.150000X1.800000*%
%ADD19RoundRect,0.250000X1.500000X0.550000X-1.500000X0.550000X-1.500000X-0.550000X1.500000X-0.550000X0*%
%ADD20RoundRect,0.250000X-0.550000X1.500000X-0.550000X-1.500000X0.550000X-1.500000X0.550000X1.500000X0*%
%ADD21R,1.450000X1.000000*%
%ADD22R,1.000000X1.450000*%
%ADD23RoundRect,0.150000X-0.150000X0.587500X-0.150000X-0.587500X0.150000X-0.587500X0.150000X0.587500X0*%
%ADD24R,1.750000X1.125000*%
%ADD25RoundRect,0.075000X-0.700000X-0.075000X0.700000X-0.075000X0.700000X0.075000X-0.700000X0.075000X0*%
%ADD26RoundRect,0.075000X-0.075000X-0.700000X0.075000X-0.700000X0.075000X0.700000X-0.075000X0.700000X0*%
%ADD27R,2.000000X4.500000*%
%ADD28R,2.600000X1.600000*%
%ADD29R,1.200000X2.000000*%
%ADD30R,1.800000X1.150000*%
%ADD31Outline4P,-0.575000X-0.900000X0.575000X-0.900000X0.575000X0.900000X-0.575000X0.900000X270.000000*%
%ADD32Outline4P,-0.575000X-0.900000X0.575000X-0.900000X0.575000X0.900000X-0.575000X0.900000X90.000000*%
%ADD33R,2.000000X1.200000*%
%ADD34RoundRect,0.250000X-0.550000X1.050000X-0.550000X-1.050000X0.550000X-1.050000X0.550000X1.050000X0*%
%ADD35Outline4P,-0.625000X-0.875000X0.625000X-0.875000X0.625000X0.875000X-0.625000X0.875000X0.000000*%
%ADD36RoundRect,0.250000X-0.375000X-0.625000X0.375000X-0.625000X0.375000X0.625000X-0.375000X0.625000X0*%
%ADD37R,1.250000X1.750000*%
%ADD38R,1.200000X0.875000*%
%ADD39R,0.875000X1.200000*%
%ADD40RoundRect,0.250000X0.275000X0.700000X-0.275000X0.700000X-0.275000X-0.700000X0.275000X-0.700000X0*%
%ADD41R,1.125000X1.750000*%
%ADD42Outline4P,-0.562500X-0.875000X0.562500X-0.875000X0.562500X0.875000X-0.562500X0.875000X90.000000*%
%ADD43R,2.750000X3.050000*%
%ADD44R,1.200000X2.200000*%
%ADD45R,1.860000X0.900000*%
%ADD46R,1.860000X3.190000*%
%ADD47O,2.524000X1.200000*%
%ADD48R,1.000000X2.500000*%
%ADD49R,1.800000X1.000000*%
%ADD50Outline4P,-0.512500X-0.700000X0.512500X-0.700000X0.512500X0.700000X-0.512500X0.700000X180.000000*%
%ADD51R,1.025000X1.400000*%
%ADD52RoundRect,0.250000X0.625000X-0.375000X0.625000X0.375000X-0.625000X0.375000X-0.625000X-0.375000X0*%
%ADD53RoundRect,0.250000X-0.250000X-0.475000X0.250000X-0.475000X0.250000X0.475000X-0.250000X0.475000X0*%
%ADD54RoundRect,0.250000X0.475000X-0.250000X0.475000X0.250000X-0.475000X0.250000X-0.475000X-0.250000X0*%
%ADD55R,1.970000X0.600000*%
%ADD56RoundRect,0.250000X-0.262500X-0.450000X0.262500X-0.450000X0.262500X0.450000X-0.262500X0.450000X0*%
%ADD57RoundRect,0.250000X0.262500X0.450000X-0.262500X0.450000X-0.262500X-0.450000X0.262500X-0.450000X0*%
%ADD58RoundRect,0.250000X0.450000X-0.262500X0.450000X0.262500X-0.450000X0.262500X-0.450000X-0.262500X0*%
%ADD59R,1.400000X1.025000*%
%ADD60RoundRect,0.250000X-0.450000X0.262500X-0.450000X-0.262500X0.450000X-0.262500X0.450000X0.262500X0*%
%ADD61RoundRect,0.232500X0.000000X0.328805X-0.328805X0.000000X0.000000X-0.328805X0.328805X0.000000X0*%
%ADD62RoundRect,0.062500X0.220971X0.309359X-0.309359X-0.220971X-0.220971X-0.309359X0.309359X0.220971X0*%
%ADD63RoundRect,0.062500X-0.220971X0.309359X-0.309359X0.220971X0.220971X-0.309359X0.309359X-0.220971X0*%
%ADD64RoundRect,0.250000X-0.512652X-0.159099X-0.159099X-0.512652X0.512652X0.159099X0.159099X0.512652X0*%
%ADD65RoundRect,0.250000X-0.475000X0.250000X-0.475000X-0.250000X0.475000X-0.250000X0.475000X0.250000X0*%
%ADD66Outline4P,-0.512500X-0.700000X0.512500X-0.700000X0.512500X0.700000X-0.512500X0.700000X0.000000*%
%ADD67R,2.200000X1.200000*%
%ADD68R,3.050000X2.750000*%
%ADD69R,0.600000X1.970000*%
%ADD70C,1.800000*%
%ADD71RoundRect,0.150000X0.512500X0.150000X-0.512500X0.150000X-0.512500X-0.150000X0.512500X-0.150000X0*%
%ADD72RoundRect,0.250000X0.159099X-0.512652X0.512652X-0.159099X-0.159099X0.512652X-0.512652X0.159099X0*%
%ADD73R,0.800000X1.800000*%
%ADD74RoundRect,0.250000X-0.159099X0.512652X-0.512652X0.159099X0.159099X-0.512652X0.512652X-0.159099X0*%
%ADD75RoundRect,0.042000X-0.258000X0.943000X-0.258000X-0.943000X0.258000X-0.943000X0.258000X0.943000X0*%
%ADD76RoundRect,0.150000X0.587500X0.150000X-0.587500X0.150000X-0.587500X-0.150000X0.587500X-0.150000X0*%
%ADD77R,1.800000X0.800000*%
%ADD78R,1.750000X1.250000*%
%ADD79RoundRect,0.250000X0.250000X0.475000X-0.250000X0.475000X-0.250000X-0.475000X0.250000X-0.475000X0*%
%ADD80R,2.180000X1.600000*%
G04 APERTURE END LIST*
D10*
X67500000Y-210000000D02*
X352500000Y-210000000D01*
X67500000Y-90000000D02*
G75*
G03*
X60000000Y-97500000I0J-7500000D01*
G01*
X60000000Y-97500000D02*
X60000000Y-202500000D01*
X352500000Y-210000000D02*
G75*
G03*
X360000000Y-202500000I0J7500000D01*
G01*
X360000000Y-202500000D02*
X360000000Y-97500000D01*
X360000000Y-97500000D02*
G75*
G03*
X352500000Y-90000000I-7500000J0D01*
G01*
X352500000Y-90000000D02*
X67500000Y-90000000D01*
X60000000Y-202500000D02*
G75*
G03*
X67500000Y-210000000I7500000J0D01*
G01*
D11*
X278500000Y-107275000D03*
X278500000Y-110225000D03*
X210400000Y-107925000D03*
X210400000Y-110875000D03*
X346475000Y-107275000D03*
X346475000Y-110225000D03*
X142400000Y-107525000D03*
X142400000Y-110475000D03*
D12*
X275475000Y-101750000D03*
X272525000Y-101750000D03*
D13*
X272500000Y-111475000D03*
X272500000Y-108525000D03*
D12*
X343450000Y-101750000D03*
X340500000Y-101750000D03*
X139475000Y-101800000D03*
X136525000Y-101800000D03*
D13*
X204400000Y-111875000D03*
X204400000Y-108925000D03*
X340475000Y-111525000D03*
X340475000Y-108575000D03*
X136600000Y-111875000D03*
X136600000Y-108925000D03*
D14*
X195725000Y-104200000D03*
X198675000Y-104200000D03*
X332025000Y-104000000D03*
X334975000Y-104000000D03*
X127725000Y-104200000D03*
X130675000Y-104200000D03*
X176025000Y-182750000D03*
X178975000Y-182750000D03*
D11*
X159600000Y-163525000D03*
X159600000Y-166475000D03*
D15*
X272537500Y-104750000D03*
X275462500Y-104750000D03*
X204537500Y-105600000D03*
X207462500Y-105600000D03*
D16*
X278500000Y-102037500D03*
X278500000Y-104962500D03*
D15*
X340512500Y-104750000D03*
X343437500Y-104750000D03*
X136537500Y-104800000D03*
X139462500Y-104800000D03*
D16*
X346425000Y-101787500D03*
X346425000Y-104712500D03*
X142400000Y-101937500D03*
X142400000Y-104862500D03*
D17*
X159725000Y-174930000D03*
X160375000Y-174930000D03*
X161025000Y-174930000D03*
X161675000Y-174930000D03*
X162325000Y-174930000D03*
X162975000Y-174930000D03*
X163625000Y-174930000D03*
X164275000Y-174930000D03*
X164925000Y-174930000D03*
X165575000Y-174930000D03*
X166225000Y-174930000D03*
X166875000Y-174930000D03*
X167525000Y-174930000D03*
X168175000Y-174930000D03*
X168175000Y-169170000D03*
X167525000Y-169170000D03*
X166875000Y-169170000D03*
X166225000Y-169170000D03*
X165575000Y-169170000D03*
X164925000Y-169170000D03*
X164275000Y-169170000D03*
X163625000Y-169170000D03*
X162975000Y-169170000D03*
X162325000Y-169170000D03*
X161675000Y-169170000D03*
X161025000Y-169170000D03*
X160375000Y-169170000D03*
X159725000Y-169170000D03*
D12*
X207475000Y-102600000D03*
X204525000Y-102600000D03*
D14*
X263775000Y-104000000D03*
X266725000Y-104000000D03*
D18*
X171625000Y-194050000D03*
X174575000Y-194050000D03*
X320025000Y-188600000D03*
X322975000Y-188600000D03*
D19*
X93800000Y-194500000D03*
X88200000Y-194500000D03*
D18*
X320025000Y-182600000D03*
X322975000Y-182600000D03*
X171625000Y-196750000D03*
X174575000Y-196750000D03*
X320025000Y-185500000D03*
X322975000Y-185500000D03*
D19*
X93800000Y-202000000D03*
X88200000Y-202000000D03*
D20*
X159650000Y-195300000D03*
X159650000Y-200900000D03*
X167150000Y-195300000D03*
X167150000Y-200900000D03*
D14*
X176025000Y-180250000D03*
X178975000Y-180250000D03*
D21*
X265300000Y-176650000D03*
X265300000Y-178550000D03*
D22*
X253950000Y-179400000D03*
X252050000Y-179400000D03*
D21*
X268550000Y-165850000D03*
X268550000Y-167750000D03*
D22*
X254600000Y-160850000D03*
X256500000Y-160850000D03*
D21*
X246450000Y-169450000D03*
X246450000Y-167550000D03*
X246450000Y-171300000D03*
X246450000Y-173200000D03*
D23*
X198950000Y-201012500D03*
X197050000Y-201012500D03*
X198000000Y-202887500D03*
D16*
X210400000Y-102737500D03*
X210400000Y-105662500D03*
D24*
X200900000Y-203237500D03*
X200900000Y-206162500D03*
D25*
X253245000Y-166870000D03*
X253245000Y-167370000D03*
X253245000Y-167870000D03*
X253245000Y-168370000D03*
X253245000Y-168870000D03*
X253245000Y-169370000D03*
X253245000Y-169870000D03*
X253245000Y-170370000D03*
X253245000Y-170870000D03*
X253245000Y-171370000D03*
X253245000Y-171870000D03*
X253245000Y-172370000D03*
X253245000Y-172870000D03*
X253245000Y-173370000D03*
X253245000Y-173870000D03*
X253245000Y-174370000D03*
D26*
X255170000Y-176295000D03*
X255670000Y-176295000D03*
X256170000Y-176295000D03*
X256670000Y-176295000D03*
X257170000Y-176295000D03*
X257670000Y-176295000D03*
X258170000Y-176295000D03*
X258670000Y-176295000D03*
X259170000Y-176295000D03*
X259670000Y-176295000D03*
X260170000Y-176295000D03*
X260670000Y-176295000D03*
X261170000Y-176295000D03*
X261670000Y-176295000D03*
X262170000Y-176295000D03*
X262670000Y-176295000D03*
D25*
X264595000Y-174370000D03*
X264595000Y-173870000D03*
X264595000Y-173370000D03*
X264595000Y-172870000D03*
X264595000Y-172370000D03*
X264595000Y-171870000D03*
X264595000Y-171370000D03*
X264595000Y-170870000D03*
X264595000Y-170370000D03*
X264595000Y-169870000D03*
X264595000Y-169370000D03*
X264595000Y-168870000D03*
X264595000Y-168370000D03*
X264595000Y-167870000D03*
X264595000Y-167370000D03*
X264595000Y-166870000D03*
D26*
X262670000Y-164945000D03*
X262170000Y-164945000D03*
X261670000Y-164945000D03*
X261170000Y-164945000D03*
X260670000Y-164945000D03*
X260170000Y-164945000D03*
X259670000Y-164945000D03*
X259170000Y-164945000D03*
X258670000Y-164945000D03*
X258170000Y-164945000D03*
X257670000Y-164945000D03*
X257170000Y-164945000D03*
X256670000Y-164945000D03*
X256170000Y-164945000D03*
X255670000Y-164945000D03*
X255170000Y-164945000D03*
D27*
X242750000Y-173050000D03*
X242750000Y-164550000D03*
D28*
X109700000Y-165000000D03*
X113300000Y-165000000D03*
D29*
X123085000Y-175700000D03*
X123085000Y-172900000D03*
X128837500Y-186400000D03*
X128837500Y-183600000D03*
D30*
X117000000Y-163275000D03*
D31*
X117000000Y-166225000D03*
D30*
X126585000Y-175775000D03*
D32*
X126585000Y-172825000D03*
D30*
X132587500Y-186475000D03*
X132587500Y-183525000D03*
X127250000Y-153775000D03*
X127250000Y-156725000D03*
D13*
X142085000Y-175775000D03*
X142085000Y-172825000D03*
D30*
X153850000Y-183125000D03*
X153850000Y-180175000D03*
D22*
X246650000Y-178850000D03*
X244750000Y-178850000D03*
D33*
X148235000Y-172550000D03*
X145435000Y-172550000D03*
D29*
X150850000Y-183050000D03*
X150850000Y-180250000D03*
D34*
X131500000Y-154450000D03*
X131500000Y-158050000D03*
D12*
X148310000Y-169800000D03*
X145360000Y-169800000D03*
D30*
X156850000Y-183125000D03*
X156850000Y-180175000D03*
D21*
X248700000Y-176800000D03*
X248700000Y-174900000D03*
D11*
X232800000Y-183825000D03*
X232800000Y-186775000D03*
X234800000Y-183825000D03*
X234800000Y-186775000D03*
D14*
X227125000Y-189100000D03*
X230075000Y-189100000D03*
X227125000Y-186800000D03*
X230075000Y-186800000D03*
D35*
X132600000Y-161500000D03*
X135400000Y-161500000D03*
D36*
X140185000Y-166300000D03*
X142985000Y-166300000D03*
D37*
X149400000Y-185700000D03*
D35*
X152200000Y-185700000D03*
D38*
X248950000Y-171037500D03*
X248950000Y-173162500D03*
D39*
X244637500Y-176600000D03*
X246762500Y-176600000D03*
D40*
X225475000Y-189200000D03*
X222325000Y-189200000D03*
X225475000Y-186700000D03*
X222325000Y-186700000D03*
D41*
X117137500Y-176200000D03*
X120062500Y-176200000D03*
X122875000Y-185000000D03*
X125800000Y-185000000D03*
D42*
X108250000Y-172462500D03*
X108250000Y-169537500D03*
D41*
X117122500Y-173300000D03*
X120047500Y-173300000D03*
X122875000Y-188000000D03*
X125800000Y-188000000D03*
D42*
X111250000Y-172462500D03*
X111250000Y-169537500D03*
D24*
X135500000Y-159212500D03*
X135500000Y-156287500D03*
D15*
X145372500Y-166300000D03*
X148297500Y-166300000D03*
D41*
X154337500Y-185700000D03*
X157262500Y-185700000D03*
D43*
X134610000Y-171125000D03*
X131560000Y-167775000D03*
X134610000Y-167775000D03*
X131560000Y-171125000D03*
D44*
X130805000Y-175750000D03*
X135365000Y-175750000D03*
D45*
X136762500Y-183450000D03*
X136762500Y-185750000D03*
X136762500Y-188050000D03*
D46*
X142912500Y-185750000D03*
D47*
X247700000Y-193300000D03*
X247700000Y-191300000D03*
X247700000Y-189300000D03*
X247700000Y-187300000D03*
X247700000Y-185300000D03*
X237700000Y-185300000D03*
X237700000Y-187300000D03*
X237700000Y-189300000D03*
X237700000Y-191300000D03*
X237700000Y-193300000D03*
D48*
X350400000Y-135600000D03*
X348400000Y-135600000D03*
X346400000Y-135600000D03*
X344400000Y-135600000D03*
X342400000Y-135600000D03*
X340400000Y-135600000D03*
X338400000Y-135600000D03*
X336400000Y-135600000D03*
D49*
X334900000Y-138200000D03*
X334900000Y-140200000D03*
X334900000Y-142200000D03*
X334900000Y-144200000D03*
X334900000Y-146200000D03*
X334900000Y-148200000D03*
D48*
X336400000Y-150800000D03*
X338400000Y-150800000D03*
X340400000Y-150800000D03*
X342400000Y-150800000D03*
X344400000Y-150800000D03*
X346400000Y-150800000D03*
X348400000Y-150800000D03*
X350400000Y-150800000D03*
D50*
X243366250Y-202946250D03*
D51*
X241541250Y-202946250D03*
D52*
X147100000Y-182800000D03*
X147100000Y-180000000D03*
D41*
X289187500Y-176905000D03*
X286262500Y-176905000D03*
D53*
X199350000Y-184900000D03*
X201250000Y-184900000D03*
D54*
X211800000Y-169850000D03*
X211800000Y-167950000D03*
D53*
X216750000Y-181000000D03*
X218650000Y-181000000D03*
D51*
X315100000Y-179600000D03*
X313275000Y-179600000D03*
D55*
X307517500Y-167020000D03*
X307517500Y-168290000D03*
X307517500Y-169560000D03*
X307517500Y-170830000D03*
X312457500Y-170830000D03*
X312457500Y-169560000D03*
X312457500Y-168290000D03*
X312457500Y-167020000D03*
D56*
X207887500Y-178250000D03*
X209712500Y-178250000D03*
X216787500Y-177150000D03*
X218612500Y-177150000D03*
D55*
X214670000Y-183855000D03*
X214670000Y-182585000D03*
X214670000Y-181315000D03*
X214670000Y-180045000D03*
X209730000Y-180045000D03*
X209730000Y-181315000D03*
X209730000Y-182585000D03*
X209730000Y-183855000D03*
D56*
X188537500Y-169050000D03*
X190362500Y-169050000D03*
D57*
X203712500Y-170150000D03*
X201887500Y-170150000D03*
D50*
X211882500Y-202930000D03*
X210057500Y-202930000D03*
D51*
X213457500Y-202930000D03*
X215282500Y-202930000D03*
D52*
X138585000Y-175700000D03*
X138585000Y-172900000D03*
D58*
X183000000Y-168312500D03*
X183000000Y-166487500D03*
D59*
X314687500Y-175887500D03*
X314687500Y-177712500D03*
D54*
X194050000Y-170250000D03*
X194050000Y-168350000D03*
D60*
X223900000Y-179087500D03*
X223900000Y-180912500D03*
D61*
X230400000Y-160673654D03*
X229586827Y-163113173D03*
X228773654Y-162300000D03*
X231213173Y-161486827D03*
X231213173Y-163113173D03*
X230400000Y-162300000D03*
X230400000Y-163926346D03*
X232026346Y-162300000D03*
X229586827Y-161486827D03*
D62*
X233361010Y-161813864D03*
X233007456Y-161460311D03*
X232653903Y-161106757D03*
X232300349Y-160753204D03*
X231946796Y-160399651D03*
X231593243Y-160046097D03*
X231239689Y-159692544D03*
X230886136Y-159338990D03*
D63*
X229913864Y-159338990D03*
X229560311Y-159692544D03*
X229206757Y-160046097D03*
X228853204Y-160399651D03*
X228499651Y-160753204D03*
X228146097Y-161106757D03*
X227792544Y-161460311D03*
X227438990Y-161813864D03*
D62*
X227438990Y-162786136D03*
X227792544Y-163139689D03*
X228146097Y-163493243D03*
X228499651Y-163846796D03*
X228853204Y-164200349D03*
X229206757Y-164553903D03*
X229560311Y-164907456D03*
X229913864Y-165261010D03*
D63*
X230886136Y-165261010D03*
X231239689Y-164907456D03*
X231593243Y-164553903D03*
X231946796Y-164200349D03*
X232300349Y-163846796D03*
X232653903Y-163493243D03*
X233007456Y-163139689D03*
X233361010Y-162786136D03*
D60*
X211800000Y-161637500D03*
X211800000Y-163462500D03*
D54*
X228400000Y-156150000D03*
X228400000Y-154250000D03*
D58*
X197950000Y-158412500D03*
X197950000Y-156587500D03*
D56*
X206187500Y-168750000D03*
X208012500Y-168750000D03*
D51*
X192637500Y-202850000D03*
X194462500Y-202850000D03*
D57*
X222712500Y-182600000D03*
X220887500Y-182600000D03*
D59*
X303387500Y-172937500D03*
X303387500Y-171112500D03*
D57*
X341812500Y-153500000D03*
X339987500Y-153500000D03*
D36*
X233800000Y-173400000D03*
X236600000Y-173400000D03*
D22*
X320337500Y-175000000D03*
X318437500Y-175000000D03*
D64*
X235928249Y-156628249D03*
X237271751Y-157971751D03*
D56*
X202587500Y-184900000D03*
X204412500Y-184900000D03*
D53*
X216750000Y-179150000D03*
X218650000Y-179150000D03*
D12*
X334575000Y-153600000D03*
X331625000Y-153600000D03*
D57*
X213312500Y-156350000D03*
X211487500Y-156350000D03*
D65*
X211600000Y-176500000D03*
X211600000Y-178400000D03*
D51*
X227643750Y-202868750D03*
X225818750Y-202868750D03*
X219706250Y-202906250D03*
X217881250Y-202906250D03*
D59*
X314687500Y-170237500D03*
X314687500Y-168412500D03*
D54*
X194050000Y-160400000D03*
X194050000Y-158500000D03*
D53*
X208050000Y-157650000D03*
X209950000Y-157650000D03*
D60*
X194050000Y-165037500D03*
X194050000Y-166862500D03*
D66*
X213457500Y-200930000D03*
D51*
X215282500Y-200930000D03*
D14*
X230325000Y-156400000D03*
X233275000Y-156400000D03*
D53*
X206850000Y-185750000D03*
X208750000Y-185750000D03*
D22*
X318337500Y-177700000D03*
X316437500Y-177700000D03*
D18*
X286637500Y-189030000D03*
X283687500Y-189030000D03*
D51*
X235525000Y-202875000D03*
X233700000Y-202875000D03*
D53*
X204550000Y-158800000D03*
X206450000Y-158800000D03*
X198450000Y-172100000D03*
X200350000Y-172100000D03*
D57*
X352312500Y-132700000D03*
X350487500Y-132700000D03*
D53*
X201850000Y-164800000D03*
X203750000Y-164800000D03*
D54*
X203700000Y-173800000D03*
X203700000Y-171900000D03*
D57*
X185962500Y-170050000D03*
X184137500Y-170050000D03*
D56*
X181037500Y-170000000D03*
X182862500Y-170000000D03*
D67*
X240800000Y-177520000D03*
X240800000Y-182080000D03*
D68*
X232825000Y-178275000D03*
X236175000Y-178275000D03*
X232825000Y-181325000D03*
X236175000Y-181325000D03*
D69*
X209305000Y-161480000D03*
X208035000Y-161480000D03*
X206765000Y-161480000D03*
X205495000Y-161480000D03*
X205495000Y-166420000D03*
X206765000Y-166420000D03*
X208035000Y-166420000D03*
X209305000Y-166420000D03*
D12*
X233275000Y-154100000D03*
X230325000Y-154100000D03*
D60*
X216900000Y-182637500D03*
X216900000Y-184462500D03*
D59*
X245300000Y-182512500D03*
X245300000Y-180687500D03*
D70*
X349760000Y-156400000D03*
X347220000Y-156400000D03*
X344726727Y-156399821D03*
X342158296Y-156399821D03*
X339600000Y-156400000D03*
X337060000Y-156400000D03*
X334520000Y-156400000D03*
X331980000Y-156400000D03*
X329440000Y-156400000D03*
X326900000Y-156400000D03*
X349800000Y-190300000D03*
X347260000Y-190300000D03*
X344766727Y-190299821D03*
X342198296Y-190299821D03*
X339640000Y-190300000D03*
X337100000Y-190300000D03*
X334560000Y-190300000D03*
X332020000Y-190300000D03*
X329480000Y-190300000D03*
X326940000Y-190300000D03*
D58*
X231900000Y-174312500D03*
X231900000Y-172487500D03*
D51*
X260393750Y-202906250D03*
X262218750Y-202906250D03*
D71*
X340685000Y-197237500D03*
X340685000Y-196287500D03*
X340685000Y-195337500D03*
X338410000Y-195337500D03*
X338410000Y-196287500D03*
X338410000Y-197237500D03*
D69*
X287552621Y-179460000D03*
X286282621Y-179460000D03*
X285012621Y-179460000D03*
X283742621Y-179460000D03*
X283742621Y-184400000D03*
X285012621Y-184400000D03*
X286282621Y-184400000D03*
X287552621Y-184400000D03*
D51*
X191012500Y-202850000D03*
X189187500Y-202850000D03*
D59*
X312687500Y-174400000D03*
X312687500Y-172575000D03*
D53*
X188500000Y-170850000D03*
X190400000Y-170850000D03*
D72*
X224228249Y-164571751D03*
X225571751Y-163228249D03*
D51*
X251081250Y-202931250D03*
X249256250Y-202931250D03*
D21*
X243200000Y-180650000D03*
X243200000Y-182550000D03*
D30*
X289500000Y-191975000D03*
X289500000Y-189025000D03*
D56*
X198487500Y-170150000D03*
X200312500Y-170150000D03*
D73*
X170800000Y-153500000D03*
X167600000Y-153500000D03*
X165400000Y-153500000D03*
X163200000Y-153500000D03*
X163200000Y-160500000D03*
X165400000Y-160500000D03*
X167600000Y-160500000D03*
X170800000Y-160500000D03*
D60*
X207400000Y-180737500D03*
X207400000Y-182562500D03*
D51*
X192637500Y-200850000D03*
X194462500Y-200850000D03*
D21*
X303387500Y-168775000D03*
X303387500Y-166875000D03*
D65*
X213800000Y-176500000D03*
X213800000Y-178400000D03*
D74*
X224671751Y-157928249D03*
X223328249Y-159271751D03*
D22*
X305637500Y-175025000D03*
X307537500Y-175025000D03*
D65*
X185100000Y-156400000D03*
X185100000Y-158300000D03*
X213800000Y-161550000D03*
X213800000Y-163450000D03*
X188000000Y-155050000D03*
X188000000Y-156950000D03*
D53*
X190300000Y-157850000D03*
X192200000Y-157850000D03*
D58*
X200200000Y-182462500D03*
X200200000Y-180637500D03*
D56*
X344487500Y-132500000D03*
X346312500Y-132500000D03*
D51*
X244941250Y-200946250D03*
X246766250Y-200946250D03*
D24*
X274200000Y-178762500D03*
X274200000Y-175837500D03*
D18*
X289200000Y-174705000D03*
X286250000Y-174705000D03*
D74*
X224171751Y-161828249D03*
X222828249Y-163171751D03*
D30*
X289547621Y-187405000D03*
X289547621Y-184455000D03*
D56*
X190337500Y-159650000D03*
X192162500Y-159650000D03*
D50*
X258812500Y-202900000D03*
D51*
X256987500Y-202900000D03*
D75*
X277105000Y-159725000D03*
X275835000Y-159725000D03*
X274565000Y-159725000D03*
X273295000Y-159725000D03*
X273295000Y-164675000D03*
X274565000Y-164675000D03*
X275835000Y-164675000D03*
X277105000Y-164675000D03*
D72*
X226528249Y-168871751D03*
X227871751Y-167528249D03*
D51*
X260393750Y-201006250D03*
X262218750Y-201006250D03*
D60*
X194050000Y-161937500D03*
X194050000Y-163762500D03*
D30*
X282400000Y-174325000D03*
X282400000Y-177275000D03*
D58*
X215800000Y-158862500D03*
X215800000Y-157037500D03*
D72*
X227928249Y-170271751D03*
X229271751Y-168928249D03*
D21*
X279400000Y-166550000D03*
X279400000Y-164650000D03*
D53*
X181000000Y-172000000D03*
X182900000Y-172000000D03*
D54*
X185950000Y-173400000D03*
X185950000Y-171500000D03*
D58*
X200500000Y-168462500D03*
X200500000Y-166637500D03*
D51*
X191062500Y-200850000D03*
X189237500Y-200850000D03*
D57*
X222012500Y-179150000D03*
X220187500Y-179150000D03*
D18*
X309925000Y-162625000D03*
X312875000Y-162625000D03*
D54*
X195950000Y-160400000D03*
X195950000Y-158500000D03*
D73*
X223300000Y-166500000D03*
X220100000Y-166500000D03*
X217900000Y-166500000D03*
X215700000Y-166500000D03*
X215700000Y-173500000D03*
X217900000Y-173500000D03*
X220100000Y-173500000D03*
X223300000Y-173500000D03*
D56*
X220187500Y-177150000D03*
X222012500Y-177150000D03*
D51*
X221281250Y-200906250D03*
X223106250Y-200906250D03*
D76*
X229737500Y-174350000D03*
X229737500Y-172450000D03*
X227862500Y-173400000D03*
D60*
X215800000Y-161637500D03*
X215800000Y-163462500D03*
D66*
X305687500Y-179625000D03*
X307512500Y-179625000D03*
D22*
X305637500Y-177625000D03*
X307537500Y-177625000D03*
D57*
X345312500Y-153500000D03*
X343487500Y-153500000D03*
D56*
X208087500Y-159350000D03*
X209912500Y-159350000D03*
D77*
X301500000Y-191900000D03*
X301500000Y-195100000D03*
X301500000Y-197300000D03*
X301500000Y-199500000D03*
X308500000Y-199500000D03*
X308500000Y-197300000D03*
X308500000Y-195100000D03*
X308500000Y-191900000D03*
D54*
X238900000Y-175150000D03*
X238900000Y-173250000D03*
D65*
X202200000Y-180600000D03*
X202200000Y-182500000D03*
D78*
X124250000Y-153850000D03*
X124250000Y-156650000D03*
D58*
X225800000Y-173812500D03*
X225800000Y-171987500D03*
D21*
X312687500Y-177850000D03*
X312687500Y-175950000D03*
D79*
X193850000Y-172900000D03*
X191950000Y-172900000D03*
D56*
X301187500Y-189300000D03*
X303012500Y-189300000D03*
D51*
X221281250Y-202906250D03*
X223106250Y-202906250D03*
D53*
X336350000Y-132400000D03*
X338250000Y-132400000D03*
D59*
X309287500Y-174337500D03*
X309287500Y-172512500D03*
D41*
X283700000Y-191530000D03*
X286625000Y-191530000D03*
D51*
X252731250Y-201056250D03*
X254556250Y-201056250D03*
D54*
X211800000Y-160100000D03*
X211800000Y-158200000D03*
D58*
X203800000Y-168362500D03*
X203800000Y-166537500D03*
D51*
X229218750Y-202868750D03*
X231043750Y-202868750D03*
D59*
X316687500Y-174712500D03*
X316687500Y-172887500D03*
D65*
X195950000Y-161900000D03*
X195950000Y-163800000D03*
D69*
X191655000Y-161880000D03*
X190385000Y-161880000D03*
X189115000Y-161880000D03*
X187845000Y-161880000D03*
X187845000Y-166820000D03*
X189115000Y-166820000D03*
X190385000Y-166820000D03*
X191655000Y-166820000D03*
D56*
X203987500Y-178750000D03*
X205812500Y-178750000D03*
D21*
X316687500Y-170275000D03*
X316687500Y-168375000D03*
D56*
X234687500Y-175600000D03*
X236512500Y-175600000D03*
D78*
X122087500Y-183400000D03*
X122087500Y-180600000D03*
D65*
X205500000Y-180700000D03*
X205500000Y-182600000D03*
D54*
X226500000Y-156150000D03*
X226500000Y-154250000D03*
D51*
X244921250Y-202946250D03*
X246746250Y-202946250D03*
X237120000Y-201000000D03*
X238945000Y-201000000D03*
D60*
X211800000Y-164637500D03*
X211800000Y-166462500D03*
D58*
X185950000Y-168462500D03*
X185950000Y-166637500D03*
D65*
X218800000Y-182600000D03*
X218800000Y-184500000D03*
D57*
X338412500Y-153500000D03*
X336587500Y-153500000D03*
D59*
X309287500Y-175912500D03*
X309287500Y-177737500D03*
D60*
X202200000Y-177137500D03*
X202200000Y-178962500D03*
D51*
X237120000Y-202900000D03*
X238945000Y-202900000D03*
D22*
X307550000Y-173000000D03*
X305650000Y-173000000D03*
D41*
X286287500Y-172305000D03*
X283362500Y-172305000D03*
X286625000Y-186830000D03*
X283700000Y-186830000D03*
D65*
X239800000Y-159350000D03*
X239800000Y-161250000D03*
D59*
X305287500Y-168737500D03*
X305287500Y-166912500D03*
D24*
X272000000Y-178762500D03*
X272000000Y-175837500D03*
D65*
X210000000Y-171100000D03*
X210000000Y-173000000D03*
D60*
X173400000Y-157487500D03*
X173400000Y-159312500D03*
D65*
X200200000Y-177100000D03*
X200200000Y-179000000D03*
D57*
X195562500Y-156350000D03*
X193737500Y-156350000D03*
D30*
X291947621Y-187405000D03*
X291947621Y-184455000D03*
D51*
X252731250Y-202956250D03*
X254556250Y-202956250D03*
D80*
X242460000Y-159350000D03*
X251640000Y-159350000D03*
D57*
X208012500Y-172950000D03*
X206187500Y-172950000D03*
D65*
X225900000Y-179050000D03*
X225900000Y-180950000D03*
D72*
X233728249Y-168471751D03*
X235071751Y-167128249D03*
D57*
X190362500Y-172900000D03*
X188537500Y-172900000D03*
D60*
X197950000Y-161937500D03*
X197950000Y-163762500D03*
D54*
X213800000Y-160100000D03*
X213800000Y-158200000D03*
D64*
X234528249Y-158028249D03*
X235871751Y-159371751D03*
D51*
X309075000Y-179625000D03*
X310900000Y-179625000D03*
D18*
X312862500Y-164925000D03*
X309912500Y-164925000D03*
D53*
X206150000Y-170750000D03*
X208050000Y-170750000D03*
D51*
X229218750Y-200968750D03*
D66*
X231043750Y-200968750D03*
D51*
X318300000Y-179600000D03*
X316475000Y-179600000D03*
M02*
